<svg width="55" height="45" viewBox="0 0 55 45" fill="none" xmlns="http://www.w3.org/2000/svg">
<g clip-path="url(#clip0_6_3856)">
<path d="M3.68008 28.27C10.5501 18.93 17.8101 9.89002 25.3601 1.08002C25.9401 0.400021 24.8601 0.0300206 24.3601 2.06106e-05C23.4701 -0.0499794 22.5201 0.340021 21.9401 1.00002C14.2701 9.73002 7.04008 18.84 0.150082 28.19C-0.389918 28.92 0.610082 29.27 1.18008 29.3C2.03008 29.34 3.16008 28.98 3.68008 28.27Z" fill="#444444"/>
<path d="M13.9398 34.22C18.0998 31.5 22.2598 28.78 26.4098 26.05C26.8998 25.73 27.4998 25.02 26.7298 24.63C25.9598 24.24 24.7998 24.55 24.1398 24.97C19.9598 27.68 15.7898 30.39 11.6098 33.11C11.1098 33.44 10.4898 34.17 11.2798 34.57C12.0698 34.97 13.2598 34.66 13.9298 34.22H13.9398Z" fill="#444444"/>
<path d="M23.6302 44.02C33.2302 40.86 42.8402 37.72 52.4402 34.53C52.9702 34.36 54.2402 33.9 54.0302 33.12C53.8302 32.38 52.4402 32.53 51.9502 32.69C42.3402 35.82 32.7402 38.98 23.1302 42.14C22.5902 42.32 21.2902 42.78 21.5102 43.58C21.7102 44.33 23.1302 44.18 23.6402 44.01L23.6302 44.02Z" fill="#444444"/>
</g>
<defs>
<clipPath id="clip0_6_3856">
<rect width="54.05" height="44.15" fill="white"/>
</clipPath>
</defs>
</svg>
