<svg width="71" height="77" viewBox="0 0 71 77" fill="none" xmlns="http://www.w3.org/2000/svg">
<g clip-path="url(#clip0_6_3852)">
<path d="M66.8698 26.93L58.5498 14.07L54.5198 7.84999C53.0998 5.65999 51.5098 3.50999 50.2798 1.20999C49.8298 0.379988 50.6698 0.0299881 51.3898 -1.18683e-05C52.3298 -0.0400119 53.5198 0.349988 54.0998 1.11999C55.6898 3.21999 57.0198 5.54999 58.4498 7.75999L62.4798 13.98L70.8098 26.84C71.3498 27.67 70.3398 28.05 69.6598 28.08C68.7498 28.12 67.3998 27.74 66.8698 26.92V26.93Z" fill="#444444"/>
<path d="M50.9202 40.99C34.5302 35.62 18.0802 30.4 1.75016 24.84C1.18016 24.65 -0.199844 24.16 0.0201569 23.31C0.240158 22.5 1.74016 22.68 2.28016 22.85C18.7302 28.03 35.0802 33.54 51.4702 38.92C52.0702 39.12 53.5102 39.63 53.2702 40.52C53.0502 41.36 51.4702 41.19 50.9102 41L50.9202 40.99Z" fill="#444444"/>
<path d="M54.26 59.74L41.49 67.89L35.21 71.9C33.05 73.28 30.92 74.79 28.67 76.01C27.9 76.42 26.71 76.11 26 75.74C25.63 75.55 24.46 74.73 25.14 74.22C27.2 72.67 29.47 71.37 31.64 69.99L37.92 65.98L50.9 57.69C52.06 56.95 55.97 58.65 54.27 59.74H54.26Z" fill="#444444"/>
</g>
<defs>
<clipPath id="clip0_6_3852">
<rect width="70.96" height="76.21" fill="white" transform="matrix(-1 0 0 1 70.96 0)"/>
</clipPath>
</defs>
</svg>
