<svg width="170" height="12" viewBox="0 0 170 12" fill="none" xmlns="http://www.w3.org/2000/svg">
<g clip-path="url(#clip0_6_2645)">
<path d="M36.9993 2.39483C53.1475 2.05037 69.3044 1.82893 85.4614 1.73051C101.618 1.63209 117.626 1.6649 133.704 1.82072C142.837 1.91094 151.979 2.03396 161.113 2.198L162.352 0.51668C141.501 0.852943 120.659 1.27122 99.8164 1.77152C78.974 2.27181 58.1317 2.85412 37.2893 3.52664C25.5892 3.90392 13.8978 4.29759 2.19756 4.72407C1.5119 4.74867 0.483408 4.9127 0.0966251 5.53602C-0.263787 6.11833 0.404294 6.42179 0.958097 6.40538C22.6795 5.88869 44.4185 5.83948 66.1486 6.26596C87.8788 6.69244 109.591 7.60281 131.278 8.98067C143.461 9.75161 155.636 10.6784 167.794 11.7528C168.453 11.8102 169.543 11.5067 169.894 10.9408C170.281 10.3257 169.56 10.1125 169.033 10.0715C147.399 8.16051 125.713 6.71704 104.009 5.74926C82.3056 4.78148 60.5667 4.29759 38.8365 4.28939C26.6264 4.28939 14.4164 4.42881 2.20635 4.72407L0.966887 6.40538C21.8004 5.64264 42.6428 4.97011 63.4851 4.3714C84.3275 3.78089 105.17 3.2642 126.012 2.83772C137.712 2.59987 149.421 2.37843 161.121 2.18979C161.807 2.18159 162.844 1.99296 163.222 1.37784C163.6 0.762726 162.906 0.51668 162.361 0.508478C146.195 0.229626 130.047 0.0573934 113.89 0.0163857C97.733 -0.024622 81.7255 0.0491919 65.6476 0.25423C56.5142 0.369052 47.3721 0.524881 38.2387 0.721718C37.5531 0.738121 36.5158 0.918555 36.1378 1.53367C35.7774 2.11598 36.4455 2.41944 36.9993 2.40303V2.39483Z" fill="#444444"/>
</g>
<defs>
<clipPath id="clip0_6_2645">
<rect width="170" height="11.761" fill="white"/>
</clipPath>
</defs>
</svg>
