<svg width="38" height="54" viewBox="0 0 38 54" fill="none" xmlns="http://www.w3.org/2000/svg">
<path d="M19.2269 29.3362C13.1174 29.3362 3.59375 25.6908 3.59375 16.1436C3.59375 7.29065 10.7814 0 19.2269 0C20.305 0 21.5629 0.173581 22.641 0.347168C25.5161 1.04152 28.0318 2.43021 31.0865 4.68684C32.8834 6.24912 34.86 9.54728 34.86 13.5398C34.5007 22.9135 28.3912 29.3362 19.2269 29.3362ZM19.0472 3.9925C12.758 3.9925 7.54696 9.54729 7.54696 16.3172C7.54696 23.7814 15.9925 25.5173 19.0472 25.5173C25.8755 25.5173 30.3678 20.8304 30.3678 13.7134C30.3678 10.7624 28.9302 8.67935 28.0318 7.985C25.6958 6.07555 23.5395 5.03403 21.2035 4.51327C20.6644 3.99251 19.9457 3.9925 19.0472 3.9925Z" fill="#171644"/>
<path d="M2.51568 53.4646C1.43753 53.4646 0.718765 52.7703 0.539073 51.7287C0.17969 49.8193 0 47.9099 0 46.0004C0 31.94 9.52365 25.5173 12.0393 25.5173C12.219 25.5173 12.3987 25.5173 12.7581 25.5173H12.9378C14.0159 25.5173 14.9144 26.3853 14.9144 27.6004C14.9144 28.6419 14.0159 29.5098 12.9378 29.5098C12.7581 29.5098 12.7581 29.5098 12.5784 29.5098H12.3987C10.9612 30.0306 4.3126 34.8909 4.3126 46.0004C4.3126 47.0419 4.3126 48.257 4.49229 49.2986C14.3753 48.7778 23.899 48.6042 33.2429 48.9514C33.6023 46.0004 33.782 42.7023 33.782 41.8344C33.782 36.2796 30.0085 31.0721 23.899 28.2947C22.8208 27.7739 22.4614 26.5588 23.0005 25.6909C23.5396 24.6494 24.7974 24.3022 25.6959 24.823C33.2429 28.2947 37.9149 34.8909 37.9149 42.0079C37.9149 43.223 37.5555 48.257 37.1962 51.3816C37.0165 52.4231 36.118 53.1174 35.2195 53.1174C24.6177 52.7703 13.6566 52.9438 2.51568 53.4646C2.69537 53.4646 2.69537 53.4646 2.51568 53.4646Z" fill="#171644"/>
<path d="M19.5866 40.0984C18.5084 40.0984 17.4303 39.5776 16.7115 38.5361C14.7349 35.9323 12.5786 33.5021 10.0629 30.7248C9.34416 29.8568 9.34416 28.6417 10.2426 27.9474C11.1411 27.2531 12.3989 27.2531 13.1177 28.121C15.4537 30.5512 17.4303 32.9814 19.4069 35.4116C20.1256 34.5437 21.0241 33.155 21.5632 32.287C22.821 30.3776 24.0788 28.4682 24.9773 27.6002C25.6961 26.7323 26.9539 26.7323 27.8524 27.4266C28.7508 28.121 28.7508 29.3361 28.032 30.204C27.3133 30.8984 26.0554 32.8078 24.9773 34.3701C22.1022 38.8833 21.2038 40.0984 19.5866 40.0984Z" fill="#171644"/>
</svg>
