<svg width="45" height="49" viewBox="0 0 45 49" fill="none" xmlns="http://www.w3.org/2000/svg">
<path d="M8.62188 44.9631C8.26755 44.9631 7.91322 44.9631 7.44078 44.9631C6.73211 44.9631 6.14156 44.4354 6.14156 43.8021C6.02344 43.0633 6.02344 42.43 6.02344 41.9023C6.02344 36.6249 8.50376 34.8306 10.7479 33.2474C12.7557 31.8753 14.4093 30.6088 14.4093 26.598C14.4093 25.2259 14.2912 23.9593 14.1731 22.4817C14.055 21.2151 13.9369 19.843 13.9369 18.4709V18.3654C13.9369 13.4047 18.425 9.28833 23.8581 9.28833C25.0392 9.28833 26.1022 9.49943 27.2833 9.92162C34.7243 12.5603 34.7243 20.2652 34.8424 25.8592C34.8424 26.3869 34.8424 26.9146 34.8424 27.4424C34.8424 30.2921 35.9054 31.1365 37.4408 32.4031C39.5668 34.0918 42.1652 36.3083 42.992 43.3799C42.992 43.6966 42.8739 44.1188 42.6377 44.3298C42.4015 44.5409 42.0471 44.752 41.5747 44.752C41.2204 44.752 40.866 44.752 40.6298 44.752C40.0392 44.752 39.4487 44.752 38.74 44.752C38.74 44.752 38.5038 44.752 38.2676 44.752C37.0865 44.8576 34.37 44.9631 31.8896 44.9631C29.7636 44.9631 27.7558 44.9631 25.7479 44.8576C23.74 44.8576 21.614 44.752 19.6061 44.752C16.7715 44.752 14.9998 44.8576 13.3463 44.9631C11.8109 44.8576 10.5116 44.9631 8.62188 44.9631ZM23.74 11.7159C19.8424 11.7159 16.5353 14.8823 16.5353 18.3654V18.4709C16.5353 19.7375 16.6534 21.004 16.7715 22.2706C16.8896 23.6427 17.1258 25.1203 17.1258 26.598C17.1258 31.7698 14.6455 33.5641 12.5195 35.1473C10.5116 36.6249 8.8581 37.786 8.8581 41.9023C8.8581 42.1134 8.8581 42.3245 8.8581 42.5356C10.5116 42.5356 11.8108 42.43 13.1101 42.43C14.7636 42.3245 16.6534 42.2189 19.6061 42.2189C21.614 42.2189 23.74 42.2189 25.7479 42.3245C27.7558 42.3245 29.8818 42.43 31.8896 42.43C34.2518 42.43 36.9684 42.3245 38.1495 42.2189C38.5038 42.2189 38.74 42.2189 38.74 42.2189C39.2125 42.2189 39.6849 42.2189 40.0392 42.2189C39.2125 37.1527 37.3227 35.5695 35.551 34.0918C33.8975 32.7197 32.1258 31.2421 32.0077 27.3368C32.0077 26.8091 32.0077 26.2814 32.0077 25.7536C32.0077 20.2652 31.8896 14.0379 26.2203 12.0326C25.3936 11.8215 24.5668 11.7159 23.74 11.7159Z" fill="#171644"/>
<path d="M31.8901 37.8928H31.772C26.457 37.3649 21.1421 37.2593 16.0633 37.6816C15.3546 37.7872 14.646 37.2593 14.646 36.6257C14.5279 35.9922 15.1184 35.3586 15.8271 35.3586C21.024 34.9363 26.457 35.0419 32.0082 35.6754C32.7169 35.781 33.3075 36.309 33.1893 37.0481C33.1893 37.4705 32.5988 37.8928 31.8901 37.8928Z" fill="#171644"/>
<path d="M25.6302 48.3408C22.5593 48.3408 19.7246 46.9687 17.953 44.7522C17.4805 44.2245 17.7168 43.4856 18.3073 43.0635C18.8979 42.6413 19.7246 42.8524 20.1971 43.3801C21.4963 44.9633 23.5042 45.9132 25.6302 45.9132C27.2837 45.9132 28.4648 45.28 29.0554 44.2245C29.4097 43.5912 30.1184 43.3801 30.827 43.5912C31.5357 43.9078 31.7719 44.5411 31.5357 45.1744C30.5908 47.1798 28.3467 48.3408 25.6302 48.3408Z" fill="#171644"/>
<path d="M1.2992 25.8604C0.59054 25.8604 0 25.3324 0 24.6988C0 24.0652 0.59054 23.5372 1.2992 23.5372C3.42518 23.5372 5.55118 23.5372 7.67716 23.4316C8.38582 23.4316 9.09448 23.854 9.09448 24.5932C9.09448 25.2268 8.62203 25.8604 7.79526 25.8604C5.66928 25.8604 3.42518 25.8604 1.2992 25.8604Z" fill="#171644"/>
<path d="M6.73229 16.782H6.61417C5.55118 16.6764 4.60632 16.1488 3.89766 15.8321C3.54333 15.6211 3.07089 15.41 2.71656 15.3044C2.0079 15.0934 1.65355 14.3546 1.88977 13.7214C2.12599 13.0881 2.95276 12.7715 3.66142 12.9826C4.25197 13.1937 4.72442 13.4048 5.19686 13.7214C5.78741 14.038 6.37797 14.3546 6.85041 14.3546C7.55907 14.4601 8.14962 14.9878 8.03151 15.7266C7.9134 16.2543 7.32284 16.782 6.73229 16.782Z" fill="#171644"/>
<path d="M13.8188 7.91724C13.4645 7.91724 13.1102 7.81168 12.7558 7.49503C11.811 6.43953 10.9842 5.38402 10.2755 4.32851C9.92119 3.80076 10.0393 3.06191 10.7479 2.63971C11.3385 2.32305 12.1653 2.42861 12.6377 3.06191C13.3464 4.11742 14.055 5.06737 14.8818 6.01732C15.3542 6.54507 15.3542 7.28393 14.7637 7.70613C14.5275 7.81168 14.1731 7.91724 13.8188 7.91724Z" fill="#171644"/>
<path d="M25.7483 6.12183C25.1577 6.12183 24.5672 5.69964 24.4491 5.17189C24.0947 3.79976 24.0947 2.42762 24.0947 1.16104C24.0947 0.527742 24.6853 0 25.394 0C26.1026 0 26.6932 0.527742 26.6932 1.16104C26.6932 2.32207 26.6932 3.58866 26.9294 4.64415C27.0475 5.27744 26.5751 5.91073 25.8664 6.12183C25.9845 6.12183 25.8664 6.12183 25.7483 6.12183Z" fill="#171644"/>
<path d="M35.9057 9.28833C35.5513 9.28833 35.197 9.18278 34.9608 8.97168C34.4883 8.54948 34.4883 7.70508 34.9608 7.28287C35.197 7.07177 35.4332 6.75511 35.6694 6.54401C36.26 5.80516 37.0868 5.0663 38.1497 4.53855C38.8584 4.22189 39.5671 4.433 39.9214 5.0663C40.2757 5.6996 40.0395 6.33291 39.3308 6.64956C38.7403 6.86066 38.2678 7.38842 37.7954 8.02172C37.4411 8.33838 37.2049 8.65503 36.8505 8.97168C36.6143 9.18278 36.26 9.28833 35.9057 9.28833Z" fill="#171644"/>
<path d="M39.2128 19.3154C38.5041 19.3154 37.9136 18.7877 37.9136 18.1544C37.9136 17.5211 38.5041 16.9933 39.2128 16.9933C39.6853 16.9933 40.0396 16.8878 40.512 16.8878C40.9845 16.7822 41.575 16.7822 42.1656 16.7822C42.8743 16.7822 43.4648 17.31 43.4648 17.9433C43.4648 18.5766 42.8743 19.1043 42.1656 19.1043C41.6932 19.1043 41.3388 19.2099 40.8664 19.2099C40.3939 19.2099 39.8034 19.3154 39.2128 19.3154Z" fill="#171644"/>
<path d="M43.701 26.7046H40.2758C39.5671 26.7046 38.9766 26.1766 38.9766 25.5431C38.9766 24.9095 39.5671 24.3816 40.2758 24.3816H43.701C44.4096 24.3816 45.0002 24.9095 45.0002 25.5431C45.0002 26.1766 44.4096 26.7046 43.701 26.7046Z" fill="#171644"/>
</svg>
