<svg width="178" height="6" viewBox="0 0 178 6" fill="none" xmlns="http://www.w3.org/2000/svg">
<path d="M177.675 3.80478C176.724 3.76459 175.707 3.78535 174.756 3.74516C154.747 3.06359 134.741 2.646 114.641 2.71583C83.9503 2.72944 53.1968 3.06798 22.6519 4.54363C16.9494 4.83046 11.3457 5.15785 5.742 5.48525C4.82451 5.5466 4.07077 5.58755 3.21824 5.5879C2.03822 5.62905 1.05307 5.48735 0.717443 4.73612C0.381821 3.98491 1.22892 3.45655 2.17753 3.23275C3.41978 2.86667 4.76082 2.54116 6.16953 2.41869C10.1331 2.0311 14.2604 1.62313 18.2268 1.49953C63.1971 -0.185585 107.984 -0.631885 152.896 1.6023C160.606 1.96441 168.252 2.65145 175.93 3.17603C176.555 3.25699 177.178 3.33794 177.703 3.37832C177.737 3.47984 177.706 3.64231 177.675 3.80478Z" fill="#76EBF2"/>
</svg>
