<svg width="128" height="46" viewBox="0 0 128 46" fill="none" xmlns="http://www.w3.org/2000/svg">
<path d="M17.6241 33.7209C18.095 33.7209 18.5188 33.6686 18.8955 33.564C19.2723 33.4593 19.5548 33.3372 19.7432 33.1977C19.9316 32.7558 20.167 32.1163 20.4496 31.2791C20.7321 30.4419 21.0206 29.5233 21.3149 28.5233C21.6092 27.5233 21.9035 26.4826 22.1978 25.4012C22.4922 24.3198 22.7629 23.2965 23.0102 22.3314C23.2574 21.3663 23.4517 20.5233 23.5929 19.8023C23.7342 19.0814 23.8048 18.5698 23.8048 18.2674C23.8048 17.7558 23.6459 17.3837 23.328 17.1512C23.0102 16.9186 22.5922 16.8023 22.0742 16.8023C21.7917 16.8023 21.5091 16.843 21.2266 16.9244C20.944 17.0058 20.685 17.1047 20.4496 17.2209C20.0964 19.4535 19.6608 21.686 19.1428 23.9186C18.6248 26.1512 18.1303 28.2674 17.6594 30.2674H17.4828C17.3651 29.8488 17.1944 29.2674 16.9707 28.5233C16.747 27.7791 16.488 26.9186 16.1937 25.9419C15.8993 24.9651 15.5756 23.9128 15.2224 22.7849C14.8692 21.657 14.5042 20.5116 14.1275 19.3488C14.0098 19 13.7684 18.7326 13.4035 18.5465C13.0385 18.3605 12.5853 18.2674 12.0437 18.2674C11.2902 18.2674 10.6427 18.4302 10.1012 18.7558C9.70089 19.9419 9.31238 21.1337 8.93565 22.3314C8.55891 23.5291 8.21161 24.6453 7.89374 25.6802C7.57588 26.7151 7.29333 27.6337 7.04609 28.436C6.79886 29.2384 6.61638 29.8488 6.49865 30.2674H6.35738C6.26319 29.8488 6.11603 29.2267 5.91589 28.4012C5.71575 27.5756 5.49795 26.6337 5.2625 25.5756C5.02704 24.5174 4.78569 23.3837 4.53846 22.1744C4.29123 20.9651 4.06166 19.7674 3.84975 18.5814C3.63783 17.3953 3.0021 16.8023 1.94253 16.8023C1.51871 16.8023 1.13609 16.8895 0.794672 17.064C0.453258 17.2384 0.188367 17.4302 0 17.6395C0.211913 18.7558 0.494463 20.0581 0.84765 21.5465C1.20084 23.0349 1.5658 24.5116 1.94253 25.9767C2.31927 27.4419 2.696 28.7907 3.07273 30.0233C3.44947 31.2558 3.77911 32.1512 4.06166 32.7093C4.20293 33.0581 4.48548 33.314 4.90931 33.4767C5.33313 33.6395 5.81582 33.7209 6.35738 33.7209C6.85184 33.7209 7.26389 33.6744 7.59353 33.5814C7.92318 33.4884 8.20573 33.3605 8.44118 33.1977C8.67664 32.5698 8.94153 31.8372 9.23586 31C9.53018 30.1628 9.83628 29.2558 10.1541 28.2791C10.472 27.3023 10.7899 26.2965 11.1078 25.2616C11.4256 24.2267 11.7258 23.1977 12.0084 22.1744C12.2909 23.1744 12.5853 24.186 12.8913 25.2093C13.1974 26.2326 13.5035 27.2151 13.8096 28.157C14.1157 29.0988 14.4101 29.9767 14.6926 30.7907C14.9752 31.6047 15.2224 32.2907 15.4343 32.8488C15.6462 33.4302 16.3761 33.7209 17.6241 33.7209ZM33.5175 34C34.789 34 35.9074 33.8721 36.8728 33.6163C37.8382 33.3605 38.627 33.0581 39.2392 32.7093C39.663 32.4535 39.9985 32.1802 40.2457 31.8895C40.493 31.5988 40.6166 31.186 40.6166 30.6512V22.5233C40.6166 20.5 39.9691 19.0174 38.674 18.0756C37.379 17.1337 35.6366 16.6628 33.4469 16.6628C32.505 16.6628 31.6103 16.7384 30.7626 16.8895C29.915 17.0407 29.1615 17.2791 28.5022 17.6047C28.0784 17.7907 27.7664 18.0116 27.5663 18.2674C27.3662 18.5233 27.2661 18.8488 27.2661 19.2442C27.2661 19.5698 27.3485 19.8663 27.5133 20.1337C27.6781 20.4012 27.8783 20.6279 28.1137 20.814C28.7966 20.4884 29.5736 20.1977 30.4448 19.9419C31.316 19.686 32.2225 19.5581 33.1643 19.5581C34.3652 19.5581 35.3011 19.7907 35.9722 20.2558C36.6432 20.7209 36.9787 21.4651 36.9787 22.4884V23.2558L32.0694 23.7442C30.1858 23.9302 28.7436 24.4302 27.7429 25.2442C26.7422 26.0581 26.2418 27.2326 26.2418 28.7674C26.2418 30.4884 26.8835 31.7907 28.1667 32.6744C29.45 33.5581 31.2336 34 33.5175 34ZM33.5175 31.1395C32.2696 31.1395 31.3513 30.9244 30.7626 30.4942C30.174 30.064 29.8797 29.4651 29.8797 28.6977C29.8797 27.9535 30.1505 27.4012 30.692 27.0407C31.2336 26.6802 32.0459 26.4419 33.129 26.3256L36.9787 25.9419V30.3721C36.7197 30.5581 36.2841 30.7326 35.672 30.8953C35.0598 31.0581 34.3416 31.1395 33.5175 31.1395ZM58.5232 33.686C58.8764 33.686 59.206 33.657 59.5121 33.5988C59.8182 33.5407 60.0537 33.4767 60.2185 33.407V22.7674C60.2185 20.7209 59.571 19.1919 58.276 18.1802C56.9809 17.1686 55.1915 16.6628 52.9075 16.6628C51.5654 16.6628 50.3646 16.8256 49.305 17.1512C48.2454 17.4767 47.386 17.8372 46.7267 18.2326C46.2323 18.5581 45.8791 18.8837 45.6672 19.2093C45.4552 19.5349 45.3493 19.9651 45.3493 20.5V32.0116C45.3493 32.6163 45.5141 33.0465 45.8438 33.3023C46.1734 33.5581 46.6796 33.686 47.3625 33.686C47.7157 33.686 48.0394 33.657 48.3337 33.5988C48.6281 33.5407 48.8576 33.4767 49.0224 33.407V20.6047C49.4934 20.3488 50.0526 20.1163 50.7001 19.907C51.3476 19.6977 52.0834 19.593 52.9075 19.593C54.0142 19.593 54.8913 19.8605 55.5388 20.3953C56.1863 20.9302 56.51 21.7674 56.51 22.907V32.0116C56.51 32.6163 56.6748 33.0465 57.0045 33.3023C57.3341 33.5581 57.8404 33.686 58.5232 33.686ZM70.5316 33.9651C72.7684 33.9651 74.4755 33.5233 75.6528 32.6395C76.8301 31.7558 77.4187 30.5349 77.4187 28.9767C77.4187 27.6279 76.9949 26.5581 76.1473 25.7674C75.2996 24.9767 73.981 24.3488 72.1916 23.8837L70.1431 23.3605C69.3661 23.1744 68.8186 22.9302 68.5007 22.6279C68.1829 22.3256 68.0239 21.9419 68.0239 21.4767C68.0239 20.8721 68.3065 20.4012 68.8716 20.064C69.4367 19.7267 70.2137 19.5581 71.2026 19.5581C72.168 19.5581 73.0686 19.7093 73.9045 20.0116C74.7404 20.314 75.3702 20.593 75.7941 20.8488C76.0531 20.686 76.265 20.4709 76.4298 20.2035C76.5946 19.936 76.677 19.6163 76.677 19.2442C76.677 18.8721 76.5358 18.5233 76.2532 18.1977C75.9707 17.8721 75.5763 17.5988 75.07 17.3779C74.5638 17.157 73.9634 16.9826 73.2688 16.8547C72.5742 16.7267 71.8031 16.6628 70.9554 16.6628C69.8958 16.6628 68.954 16.7849 68.1299 17.0291C67.3058 17.2733 66.6171 17.6105 66.0638 18.0407C65.5104 18.4709 65.0925 18.9826 64.8099 19.5756C64.5274 20.1686 64.3861 20.8023 64.3861 21.4767C64.3861 22.7326 64.7628 23.7209 65.5163 24.4419C66.2698 25.1628 67.4471 25.7326 69.0482 26.1512L71.4499 26.7791C72.2033 26.9651 72.7743 27.2326 73.1628 27.5814C73.5513 27.9302 73.7456 28.3953 73.7456 28.9767C73.7456 29.6512 73.463 30.1686 72.8979 30.5291C72.3328 30.8895 71.5205 31.0698 70.4609 31.0698C69.3307 31.0698 68.3418 30.8953 67.4942 30.5465C66.6465 30.1977 65.8931 29.814 65.2338 29.3953C64.9277 29.5814 64.6863 29.8256 64.5097 30.1279C64.3331 30.4302 64.2448 30.7558 64.2448 31.1047C64.2448 31.5233 64.3979 31.907 64.704 32.2558C65.0101 32.6047 65.4398 32.907 65.9931 33.1628C66.5464 33.4186 67.2116 33.6163 67.9886 33.7558C68.7656 33.8953 69.6133 33.9651 70.5316 33.9651ZM83.317 14.2558C83.9763 14.2558 84.506 14.0523 84.9063 13.6453C85.3066 13.2384 85.5067 12.7326 85.5067 12.1279C85.5067 11.5233 85.3066 11.0174 84.9063 10.6105C84.506 10.2035 83.9763 10 83.317 10C82.6577 10 82.1161 10.2035 81.6923 10.6105C81.2685 11.0174 81.0566 11.5233 81.0566 12.1279C81.0566 12.7326 81.2685 13.2384 81.6923 13.6453C82.1161 14.0523 82.6577 14.2558 83.317 14.2558ZM83.4582 33.686C83.835 33.686 84.1705 33.657 84.4648 33.5988C84.7592 33.5407 84.9887 33.4767 85.1535 33.407V18.686C85.1535 18.0581 84.9946 17.6163 84.6767 17.3605C84.3589 17.1047 83.8585 16.9767 83.1757 16.9767C82.799 16.9767 82.4634 17.0116 82.1691 17.0814C81.8748 17.1512 81.6334 17.2093 81.4451 17.2558V32.0116C81.4451 32.6163 81.6099 33.0465 81.9395 33.3023C82.2692 33.5581 82.7754 33.686 83.4582 33.686ZM96.0317 33.9651C97.3032 33.9651 98.2509 33.7674 98.8749 33.3721C99.4988 32.9767 99.8108 32.4767 99.8108 31.8721C99.8108 31.5465 99.7461 31.2674 99.6166 31.0349C99.4871 30.8023 99.3399 30.593 99.1751 30.407C98.8455 30.5698 98.4569 30.7093 98.0096 30.8256C97.5622 30.9419 97.1384 31 96.7381 31C95.8434 31 95.1488 30.8256 94.6543 30.4767C94.1598 30.1279 93.9126 29.5349 93.9126 28.6977V20.3953H98.4687C99.3399 20.3953 99.7755 19.8953 99.7755 18.8953C99.7755 18.6163 99.7343 18.3488 99.6519 18.093C99.5695 17.8372 99.4812 17.6395 99.387 17.5H93.9126V14.0465C93.9126 13.4419 93.7537 13.0116 93.4358 12.7558C93.1179 12.5 92.6176 12.3721 91.9348 12.3721C91.5816 12.3721 91.2519 12.407 90.9458 12.4767C90.6397 12.5465 90.4043 12.6047 90.2394 12.6512V28.9419C90.2394 30.7326 90.7633 32.0174 91.8111 32.7965C92.8589 33.5756 94.2658 33.9651 96.0317 33.9651ZM111.395 33.9651C112.219 33.9651 112.991 33.8953 113.709 33.7558C114.427 33.6163 115.051 33.4244 115.581 33.1802C116.11 32.936 116.528 32.6453 116.834 32.3081C117.141 31.9709 117.294 31.6047 117.294 31.2093C117.294 30.5349 116.964 30.0116 116.305 29.6395C115.81 29.9884 115.151 30.314 114.327 30.6163C113.503 30.9186 112.596 31.0698 111.607 31.0698C110.124 31.0698 108.905 30.75 107.952 30.1105C106.998 29.4709 106.357 28.4884 106.027 27.1628L116.34 25.6977C116.882 25.6047 117.294 25.4244 117.576 25.157C117.859 24.8895 118 24.4651 118 23.8837C118 22.8372 117.818 21.8721 117.453 20.9884C117.088 20.1047 116.57 19.343 115.899 18.7035C115.227 18.064 114.427 17.564 113.497 17.2035C112.567 16.843 111.537 16.6628 110.406 16.6628C109.276 16.6628 108.217 16.8488 107.228 17.2209C106.239 17.593 105.379 18.1337 104.65 18.843C103.92 19.5523 103.343 20.436 102.919 21.4942C102.495 22.5523 102.283 23.7791 102.283 25.1744C102.283 26.6163 102.501 27.8837 102.937 28.9767C103.372 30.0698 103.99 30.9884 104.791 31.7326C105.591 32.4767 106.551 33.0349 107.669 33.407C108.788 33.7791 110.03 33.9651 111.395 33.9651ZM105.815 24.4767C105.862 22.8721 106.315 21.6395 107.175 20.7791C108.034 19.9186 109.111 19.4884 110.406 19.4884C111.678 19.4884 112.655 19.8547 113.338 20.5872C114.021 21.3198 114.409 22.2093 114.503 23.2558L105.815 24.4767Z" fill="#414141"/>
<path d="M62 11.4472V1H127V45H62V37.9338" stroke="#414141" stroke-width="2"/>
</svg>
