<svg width="99" height="99" viewBox="0 0 99 99" fill="none" xmlns="http://www.w3.org/2000/svg">
<path d="M88.2476 7.74951H10.7524C4.82349 7.74951 0 12.573 0 18.502V80.498C0 86.427 4.82349 91.2505 10.7524 91.2505H88.2476C94.1765 91.2505 99 86.427 99 80.498V18.502C99 12.573 94.1765 7.74951 88.2476 7.74951ZM96.0939 80.498C96.0939 84.8246 92.5741 88.3444 88.2476 88.3444H10.7524C6.42589 88.3444 2.90607 84.8246 2.90607 80.498V18.502C2.90607 14.1754 6.42589 10.6556 10.7524 10.6556H88.2476C92.5741 10.6556 96.0939 14.1754 96.0939 18.502V80.498Z" fill="#414141"/>
<path d="M91.347 23.2485H7.65225C6.84979 23.2485 6.19922 23.8989 6.19922 24.7016C6.19922 25.5042 6.84979 26.1546 7.65225 26.1546H91.347C92.1494 26.1546 92.8 25.5042 92.8 24.7016C92.8 23.8989 92.1494 23.2485 91.347 23.2485Z" fill="#414141"/>
<path d="M10.7528 18.4051C11.1345 18.4051 11.5104 18.2501 11.7796 17.9789C12.0509 17.7096 12.2059 17.3357 12.2059 16.9521C12.2059 16.5702 12.0509 16.1945 11.7796 15.9252C11.5104 15.654 11.1345 15.499 10.7528 15.499C10.3692 15.499 9.99532 15.654 9.72603 15.9252C9.4548 16.1945 9.2998 16.5702 9.2998 16.9521C9.2998 17.3355 9.4548 17.7096 9.72603 17.9789C9.99532 18.2501 10.3692 18.4051 10.7528 18.4051Z" fill="#414141"/>
<path d="M23.1513 18.4051C23.5329 18.4051 23.9088 18.2501 24.1781 17.9789C24.4493 17.7096 24.6043 17.3357 24.6043 16.9521C24.6043 16.5702 24.4493 16.1945 24.1781 15.9252C23.9088 15.654 23.5329 15.499 23.1513 15.499C22.7677 15.499 22.3938 15.654 22.1245 15.9252C21.8532 16.1945 21.6982 16.5702 21.6982 16.9521C21.6982 17.3355 21.8532 17.7096 22.1245 17.9789C22.3938 18.2501 22.7677 18.4051 23.1513 18.4051Z" fill="#414141"/>
<path d="M16.9521 18.4051C17.3357 18.4051 17.7096 18.2501 17.9789 17.9789C18.2501 17.7096 18.4051 17.3357 18.4051 16.9521C18.4051 16.5702 18.2501 16.1945 17.9789 15.9252C17.7096 15.654 17.3357 15.499 16.9521 15.499C16.5704 15.499 16.1945 15.654 15.9252 15.9252C15.654 16.1945 15.499 16.5702 15.499 16.9521C15.499 17.3355 15.654 17.7096 15.9252 17.9789C16.1945 18.2501 16.5704 18.4051 16.9521 18.4051Z" fill="#414141"/>
<g clip-path="url(#clip0)">
<path d="M50.0003 64.9285C45.5302 64.9285 41.8936 61.2919 41.8936 56.8218C41.8936 52.3517 45.5302 48.7151 50.0003 48.7151C54.4703 48.7151 58.107 52.3517 58.107 56.8218C58.107 61.2919 54.4703 64.9285 50.0003 64.9285ZM50.0003 51.0299C46.8066 51.0299 44.2084 53.6282 44.2084 56.8218C44.2084 60.0154 46.8066 62.6137 50.0003 62.6137C53.1939 62.6137 55.7921 60.0154 55.7921 56.8218C55.7921 53.6282 53.1939 51.0299 50.0003 51.0299Z" fill="#414141"/>
<path d="M52.4618 76.6963L51.1245 73.0221C50.3759 73.0734 49.6243 73.0734 48.8756 73.0221L47.5383 76.6963L39.1107 73.6289L40.448 69.9549C39.8423 69.5135 39.2669 69.0301 38.7265 68.5085L35.3392 70.4643L30.8549 62.6973L34.2386 60.7438C34.0584 60.0167 33.9287 59.2759 33.8505 58.5276L30 57.8486L31.5573 49.0165L35.4055 49.695C35.735 49.0217 36.1117 48.3708 36.5324 47.7478L34.0192 44.7527L40.8894 38.9879L43.4009 41.981C44.0871 41.6756 44.794 41.4183 45.5159 41.2112V37.304H54.4843V41.2112C55.2061 41.4183 55.9132 41.6756 56.5994 41.981L59.1109 38.9879L65.9811 44.7527L63.4678 47.7478C63.8885 48.3709 64.2652 49.0219 64.5947 49.695L68.4428 49.0165L70.0002 57.8486L66.1498 58.5276C66.0716 59.2759 65.9419 60.0167 65.7617 60.7438L69.1454 62.6973L64.6611 70.4642L61.2739 68.5084C60.7334 69.0299 60.158 69.5134 59.5523 69.9547L60.8896 73.6288L52.4618 76.6963ZM52.6772 70.5199L53.8453 73.7293L57.9224 72.2453L56.7541 69.0357L57.5308 68.5352C58.518 67.8991 59.4245 67.1375 60.2252 66.2715L60.8529 65.5926L63.8136 67.302L65.983 63.5446L63.0266 61.8377L63.3006 60.9546C63.6479 59.836 63.852 58.6701 63.9077 57.4892L63.9513 56.5646L67.3184 55.9709L66.565 51.6981L63.2027 52.291L62.8449 51.4385C62.3911 50.3569 61.7983 49.3324 61.083 48.3933L60.5221 47.657L62.7196 45.038L59.3961 42.2491L57.2002 44.866L56.3777 44.4414C55.3321 43.9016 54.2201 43.497 53.0725 43.2386L52.1693 43.0352V39.6188H47.8306V43.0352L46.9274 43.2386C45.7798 43.497 44.6678 43.9016 43.6223 44.4414L42.7998 44.866L40.6039 42.2491L37.2803 45.038L39.4779 47.657L38.917 48.3933C38.2018 49.3322 37.6089 50.3568 37.1551 51.4385L36.7973 52.291L33.4351 51.6981L32.6817 55.9709L36.0487 56.5646L36.0923 57.4892C36.148 58.67 36.3523 59.836 36.6994 60.9546L36.9735 61.8377L34.0171 63.5446L36.1865 67.302L39.1472 65.5926L39.775 66.2715C40.5757 67.1375 41.4822 67.8991 42.4693 68.5352L43.246 69.0357L42.0778 72.2453L46.1549 73.7293L47.3231 70.5199L48.2396 70.6355C49.4003 70.7818 50.6002 70.7818 51.7608 70.6355L52.6772 70.5199Z" fill="#414141"/>
</g>
<defs>
<clipPath id="clip0">
<rect width="40" height="40" fill="white" transform="translate(30 37)"/>
</clipPath>
</defs>
</svg>
