<svg width="99" height="99" viewBox="0 0 99 99" fill="none" xmlns="http://www.w3.org/2000/svg">
<path d="M88.2476 7.74951H10.7524C4.82349 7.74951 0 12.573 0 18.502V80.498C0 86.427 4.82349 91.2505 10.7524 91.2505H88.2476C94.1765 91.2505 99 86.427 99 80.498V18.502C99 12.573 94.1765 7.74951 88.2476 7.74951ZM96.0939 80.498C96.0939 84.8246 92.5741 88.3444 88.2476 88.3444H10.7524C6.42589 88.3444 2.90607 84.8246 2.90607 80.498V18.502C2.90607 14.1754 6.42589 10.6556 10.7524 10.6556H88.2476C92.5741 10.6556 96.0939 14.1754 96.0939 18.502V80.498Z" fill="#414141"/>
<path d="M91.3475 23.2485H7.65274C6.85028 23.2485 6.19971 23.8989 6.19971 24.7016C6.19971 25.5042 6.85028 26.1546 7.65274 26.1546H91.3475C92.1499 26.1546 92.8005 25.5042 92.8005 24.7016C92.8005 23.8989 92.1499 23.2485 91.3475 23.2485Z" fill="#414141"/>
<path d="M10.7523 18.4051C11.134 18.4051 11.5099 18.2501 11.7792 17.9789C12.0504 17.7096 12.2054 17.3357 12.2054 16.9521C12.2054 16.5702 12.0504 16.1945 11.7792 15.9252C11.5099 15.654 11.134 15.499 10.7523 15.499C10.3687 15.499 9.99484 15.654 9.72554 15.9252C9.45431 16.1945 9.29932 16.5702 9.29932 16.9521C9.29932 17.3355 9.45431 17.7096 9.72554 17.9789C9.99484 18.2501 10.3687 18.4051 10.7523 18.4051Z" fill="#414141"/>
<path d="M23.1518 18.4051C23.5334 18.4051 23.9093 18.2501 24.1786 17.9789C24.4498 17.7096 24.6048 17.3357 24.6048 16.9521C24.6048 16.5702 24.4498 16.1945 24.1786 15.9252C23.9093 15.654 23.5334 15.499 23.1518 15.499C22.7682 15.499 22.3942 15.654 22.125 15.9252C21.8537 16.1945 21.6987 16.5702 21.6987 16.9521C21.6987 17.3355 21.8537 17.7096 22.125 17.9789C22.3942 18.2501 22.7682 18.4051 23.1518 18.4051Z" fill="#414141"/>
<path d="M16.9521 18.4051C17.3357 18.4051 17.7096 18.2501 17.9789 17.9789C18.2501 17.7096 18.4051 17.3357 18.4051 16.9521C18.4051 16.5702 18.2501 16.1945 17.9789 15.9252C17.7096 15.654 17.3357 15.499 16.9521 15.499C16.5704 15.499 16.1945 15.654 15.9252 15.9252C15.654 16.1945 15.499 16.5702 15.499 16.9521C15.499 17.3355 15.654 17.7096 15.9252 17.9789C16.1945 18.2501 16.5704 18.4051 16.9521 18.4051Z" fill="#414141"/>
</svg>
