<svg width="90" height="90" viewBox="0 0 90 90" fill="none" xmlns="http://www.w3.org/2000/svg">
<path d="M81.7457 28.3504C75.3272 14.2105 61.2061 4.92743 45.6667 4.66992C29.5474 4.40286 14.8992 13.687 8.24988 28.3509C3.6 28.9707 0 32.9604 0 37.7771V52.2224C0 57.0396 3.60073 61.0296 8.25135 61.6487C14.7888 76.0713 29.1029 85.3356 45 85.3356C60.8984 85.3356 75.2123 76.0721 81.7488 61.6486C86.3993 61.0294 90 57.0394 90 52.2224V37.7771C90 32.9589 86.3976 28.9683 81.7457 28.3504ZM45.6098 8.10241C59.2685 8.32869 71.7315 16.1761 77.897 28.2646H12.0988C18.4774 15.7212 31.4207 7.86731 45.6098 8.10241ZM45 81.9028C31.0155 81.9028 18.3699 74.0673 12.1004 61.7349H77.8996C71.6306 74.0673 58.9856 81.9028 45 81.9028ZM86.5671 52.2224C86.5671 55.5748 83.84 58.302 80.4875 58.302H9.51245C6.16004 58.302 3.43286 55.5748 3.43286 52.2224V37.7771C3.43286 34.4247 6.16004 31.6975 9.51245 31.6975H80.4875C83.84 31.6975 86.5671 34.4247 86.5671 37.7771V52.2224Z" fill="#414141"/>
<path d="M24.9671 47.3969L22.0656 38.4158H18.0595L15.158 47.3969L12.2565 38.4158H7.97217L13.0292 53.2827H17.3118L20.0761 45.1858L22.8115 53.2827H27.1227L32.1798 38.4158H27.8686L24.9671 47.3969Z" fill="#414141"/>
<path d="M49.8919 47.3969L46.9904 38.4158H42.9843L40.0826 47.3969L37.1813 38.4158H32.897L37.9541 53.2827H42.2366L45.0009 45.1858L47.7363 53.2827H52.0473L57.1046 38.4158H52.7934L49.8919 47.3969Z" fill="#414141"/>
<path d="M74.8167 47.3969L71.915 38.4158H67.9091L65.0075 47.3969L62.1061 38.4158H57.8218L62.8789 53.2827H67.1614L69.9257 45.1858L72.6611 53.2827H76.9721L82.0292 38.4158H77.7182L74.8167 47.3969Z" fill="#414141"/>
</svg>
