<svg width="80" height="80" viewBox="0 0 80 80" fill="none" xmlns="http://www.w3.org/2000/svg">
<path d="M67.4644 0.762695H12.5356C5.62344 0.762695 0 6.38613 0 13.2983V55.4924C0 62.4046 5.62344 68.028 12.5356 68.028H18.0056V73.7746C18.0056 75.7082 18.9952 77.4566 20.6528 78.4521C21.523 78.9746 22.4898 79.2371 23.4591 79.2371C24.3361 79.2371 25.215 79.0221 26.0258 78.5903L45.8625 68.0278H67.4642C74.3764 68.0278 79.9998 62.4044 79.9998 55.4922V13.2983C80 6.38613 74.3766 0.762695 67.4644 0.762695ZM77.6562 55.4924C77.6562 61.1122 73.0842 65.6842 67.4644 65.6842H45.57C45.378 65.6842 45.1887 65.7314 45.0192 65.8217L24.9244 76.5216C23.9508 77.04 22.805 77.0105 21.8595 76.4427C20.9139 75.8749 20.3494 74.8774 20.3494 73.7746V66.8561C20.3494 66.2089 19.8247 65.6842 19.1775 65.6842H12.5356C6.91578 65.6842 2.34375 61.1122 2.34375 55.4924V13.2983C2.34375 7.67847 6.91578 3.10644 12.5356 3.10644H67.4644C73.0842 3.10644 77.6562 7.67847 77.6562 13.2983V55.4924Z" fill="#414141"/>
<path d="M30.4346 20.4186C30.4198 20.3772 30.4031 20.3347 30.382 20.2819C29.5785 18.332 27.6973 17.072 25.5834 17.072C23.4757 17.0741 21.5976 18.3341 20.7959 20.2828C20.7871 20.3033 20.7789 20.3241 20.7712 20.3442C20.7639 20.3611 20.7568 20.3783 20.7503 20.3955L13.4518 39.558C13.2215 40.1628 13.525 40.8398 14.1298 41.0701C14.7345 41.3008 15.4117 40.9969 15.642 40.3922L22.9337 21.2475C22.9395 21.2333 22.9449 21.2192 22.9501 21.2056C22.9539 21.197 22.9574 21.1886 22.961 21.1798C23.399 20.1092 24.4292 19.4169 25.589 19.4158C26.744 19.4158 27.7746 20.1061 28.211 21.1653C28.2171 21.1805 28.2234 21.1953 28.2287 21.2105C28.2317 21.2191 28.2348 21.2275 28.2379 21.2359L38.0595 47.2586C38.4951 48.4145 37.9092 49.7098 36.7528 50.1461C36.496 50.2431 36.2301 50.2923 35.9623 50.2923C35.036 50.2923 34.1938 49.7092 33.8665 48.8411L32.254 44.5676C32.0818 44.1115 31.6453 43.8095 31.1576 43.8095H19.9435C19.4573 43.8095 19.0215 44.1098 18.8484 44.5644L17.217 48.8476C17.0043 49.407 16.5864 49.85 16.0404 50.0947C15.4942 50.3395 14.8854 50.357 14.326 50.144C13.767 49.9312 13.3242 49.5133 13.0792 48.967C12.8342 48.4208 12.8167 47.8122 13.0296 47.253L13.975 44.7686C14.2051 44.1636 13.9014 43.4867 13.2965 43.2565C12.6915 43.0265 12.0146 43.3301 11.7845 43.935L10.8392 46.4192C9.93995 48.7817 11.1301 51.4351 13.4924 52.3344C14.0229 52.5362 14.5748 52.6369 15.1257 52.6369C15.7635 52.6369 16.3999 52.502 16.9992 52.2333C18.1168 51.7322 18.9723 50.8256 19.4076 49.6812L20.7514 46.1533H30.3474L31.6737 49.6684C32.3431 51.4434 34.0665 52.6361 35.9624 52.6361C36.5143 52.6361 37.059 52.5359 37.5807 52.3387C39.9451 51.4467 41.1437 48.797 40.2526 46.4315L30.4346 20.4186Z" fill="#414141"/>
<path d="M22.544 39.3287H28.5815C28.9662 39.3287 29.3266 39.1398 29.5454 38.8234C29.7641 38.5068 29.8137 38.1031 29.6779 37.7431L26.673 29.7806C26.501 29.325 26.0654 29.0232 25.5783 29.0225C25.5777 29.0225 25.5772 29.0225 25.5766 29.0225C25.0904 29.0225 24.6546 29.3228 24.4815 29.7773L21.4488 37.7398C21.3116 38.1 21.3604 38.5046 21.579 38.822C21.7977 39.1392 22.1585 39.3287 22.544 39.3287ZM25.5715 33.5001L26.8866 36.985H24.2441L25.5715 33.5001Z" fill="#414141"/>
<path d="M60.4667 27.5922C59.0493 25.6959 57.0532 24.7344 54.5337 24.7344H50.6982C50.3872 24.7344 50.0887 24.8581 49.8689 25.0783C49.649 25.2984 49.5259 25.597 49.5264 25.9083C49.5318 29.0505 49.5389 33.483 49.5389 35.272C49.5389 37.537 49.5525 42.1389 49.5607 44.6803C49.5617 44.9919 49.6867 45.29 49.9081 45.5092C50.1276 45.7266 50.4239 45.8484 50.7326 45.8484H50.7401C52.6056 45.8364 53.9403 45.8234 54.7068 45.81C56.9884 45.7702 58.9443 44.7702 60.3632 42.9181C61.8292 41.005 62.6364 38.2995 62.6364 35.3002C62.6365 32.2012 61.8659 29.4638 60.4667 27.5922ZM58.5029 41.4928C57.5065 42.7933 56.2515 43.4391 54.6661 43.4667C54.079 43.477 53.1515 43.487 51.9007 43.4966C51.8928 40.8905 51.8826 37.2169 51.8826 35.272C51.8826 33.6958 51.8772 30.0686 51.8722 27.0781H54.5337C56.3231 27.0781 57.6117 27.6873 58.5895 28.9955C59.6878 30.4647 60.2926 32.7038 60.2926 35.3003C60.2928 37.7872 59.6572 39.9866 58.5029 41.4928Z" fill="#414141"/>
<path d="M65.6973 25.1544C65.1239 25.4546 64.9025 26.1627 65.2025 26.7362C66.4552 29.1294 67.1173 32.091 67.1173 35.3005C67.1173 39.2816 65.9819 42.9548 63.92 45.644C61.6727 48.5769 58.4283 50.2273 54.7845 50.2913C52.7308 50.3271 47.5528 50.3474 47.3314 50.3474C46.7366 50.3474 46.1755 50.1162 45.7523 49.6969C45.3339 49.2816 45.0928 48.7051 45.0908 48.1193C45.0908 48.1063 45.0902 47.9148 45.0891 47.5849C45.0684 41.4251 45.058 37.2824 45.058 35.2724C45.058 32.8354 45.0448 25.5744 45.0405 23.1884L45.0392 22.4985C45.0383 21.9066 45.2766 21.3283 45.6938 20.911C46.1167 20.4871 46.68 20.2537 47.2797 20.2537H54.5328C57.6723 20.2537 60.4731 21.314 62.632 23.3201C63.1062 23.7607 63.8478 23.7333 64.2883 23.2591C64.7287 22.7851 64.7016 22.0435 64.2273 21.6029C61.627 19.1869 58.2747 17.9099 54.5328 17.9099H47.2797C46.0527 17.9099 44.9002 18.3879 44.0355 19.2548C43.1817 20.1084 42.6933 21.2923 42.6953 22.5005L42.6966 23.1926C42.7009 25.5782 42.7141 32.8376 42.7141 35.2724C42.7141 37.2851 42.7245 41.4304 42.7452 47.5929L42.7469 48.1235C42.7511 49.3305 43.2445 50.5104 44.1019 51.3615C44.9678 52.219 46.1147 52.6913 47.3438 52.6913C47.5536 52.6913 52.7583 52.6709 54.8252 52.6349C59.1986 52.5582 63.0891 50.5816 65.7798 47.0699C68.1536 43.9741 69.4608 39.7944 69.4608 35.3007C69.4608 31.6629 68.7266 28.4158 67.2787 25.6494C66.9789 25.0759 66.2709 24.8544 65.6973 25.1544Z" fill="#414141"/>
</svg>
