<svg width="86" height="86" viewBox="0 0 86 86" fill="none" xmlns="http://www.w3.org/2000/svg">
<path d="M5.43913 5.43908C5.31201 5.57353 5.21177 5.73105 5.14381 5.90314C5.06959 6.07152 5.03125 6.25351 5.03125 6.43752C5.03125 6.62153 5.06959 6.80352 5.14381 6.97189C5.20836 7.14571 5.30901 7.30387 5.43913 7.43596C5.7057 7.6974 6.06419 7.84385 6.43757 7.84385C6.81094 7.84385 7.16943 7.6974 7.436 7.43596C7.69744 7.16938 7.84389 6.8109 7.84389 6.43752C7.84389 6.06414 7.69744 5.70566 7.436 5.43908C7.16405 5.18816 6.80759 5.04883 6.43757 5.04883C6.06754 5.04883 5.71108 5.18816 5.43913 5.43908Z" fill="#414141"/>
<path d="M10.122 5.14358C9.94814 5.20812 9.78997 5.30877 9.65789 5.43889C9.39645 5.70547 9.25 6.06395 9.25 6.43733C9.25 6.81071 9.39645 7.1692 9.65789 7.43577C9.85458 7.63409 10.1059 7.76935 10.3797 7.82429C10.6536 7.87923 10.9376 7.85137 11.1956 7.74426C11.4536 7.63715 11.6738 7.45564 11.8282 7.22288C11.9826 6.99012 12.0642 6.71665 12.0626 6.43733C12.0571 6.06506 11.9115 5.70853 11.6548 5.43889C11.4554 5.24645 11.2043 5.11609 10.9322 5.06367C10.6601 5.01124 10.3786 5.039 10.122 5.14358Z" fill="#414141"/>
<path d="M14.3407 5.14376C14.1686 5.21172 14.0111 5.31196 13.8766 5.43908C13.6152 5.70565 13.4688 6.06414 13.4688 6.43752C13.4688 6.81089 13.6152 7.16938 13.8766 7.43595C14.0134 7.56006 14.1703 7.65993 14.3407 7.73127C14.5098 7.80332 14.6913 7.84154 14.8751 7.84377C15.0603 7.84565 15.244 7.81056 15.4154 7.74055C15.5869 7.67055 15.7427 7.56703 15.8736 7.43608C16.0046 7.30512 16.1081 7.14934 16.1781 6.97788C16.2481 6.80642 16.2832 6.62271 16.2813 6.43752C16.2759 6.06524 16.1302 5.70872 15.8735 5.43908C15.6723 5.24967 15.4213 5.12134 15.1499 5.06906C14.8786 5.01677 14.5979 5.04268 14.3407 5.14376Z" fill="#414141"/>
<path d="M38.7812 24.7188H19.0938V27.5312H38.7812V24.7188Z" fill="#414141"/>
<path d="M38.7812 33.1562H19.0938V35.9688H38.7812V33.1562Z" fill="#414141"/>
<path d="M45.8125 41.5938H19.0938V44.4062H45.8125V41.5938Z" fill="#414141"/>
<path d="M37.375 50.0312H19.0938V52.8438H37.375V50.0312Z" fill="#414141"/>
<path d="M30.3438 58.4688H19.0938V61.2812H30.3438V58.4688Z" fill="#414141"/>
<path d="M27.5312 66.9062H19.0938V69.7188H27.5312V66.9062Z" fill="#414141"/>
<path d="M79.803 17.6875C79.0956 17.6855 78.3949 17.8239 77.7414 18.0947C77.0879 18.3656 76.4948 18.7635 75.9963 19.2653L71.125 24.1366V5.03125C71.125 3.91237 70.6805 2.83931 69.8894 2.04814C69.0982 1.25697 68.0251 0.8125 66.9062 0.8125H5.03125C3.91237 0.8125 2.83931 1.25697 2.04814 2.04814C1.25697 2.83931 0.8125 3.91237 0.8125 5.03125V80.9688C0.8125 82.0876 1.25697 83.1607 2.04814 83.9519C2.83931 84.743 3.91237 85.1875 5.03125 85.1875H66.9062C68.0251 85.1875 69.0982 84.743 69.8894 83.9519C70.6805 83.1607 71.125 82.0876 71.125 80.9688V39.3634L83.6097 26.8787C84.3631 26.126 84.8763 25.1666 85.0844 24.1221C85.2924 23.0776 85.1859 21.9948 84.7784 21.0108C84.3708 20.0268 83.6806 19.1858 82.7949 18.5942C81.9093 18.0027 80.868 17.6871 79.803 17.6875ZM3.625 5.03125C3.625 4.65829 3.77316 4.3006 4.03688 4.03688C4.3006 3.77316 4.65829 3.625 5.03125 3.625H66.9062C67.2792 3.625 67.6369 3.77316 67.9006 4.03688C68.1643 4.3006 68.3125 4.65829 68.3125 5.03125V9.25H3.625V5.03125ZM68.3125 80.9688C68.3125 81.3417 68.1643 81.6994 67.9006 81.9631C67.6369 82.2268 67.2792 82.375 66.9062 82.375H5.03125C4.65829 82.375 4.3006 82.2268 4.03688 81.9631C3.77316 81.6994 3.625 81.3417 3.625 80.9688V12.0625H68.3125V26.9491L59.875 35.3866V31.1678L44.9884 16.2812H12.0625V78.1562H59.875V50.6134L68.3125 42.1759V80.9688ZM34.7397 60.5219L30.933 71.942L42.3531 68.1353L46.3947 64.0938L57.0625 53.4259V75.3438H14.875V19.0938H43V33.1562H57.0625V38.1991L38.7812 56.4803L34.7397 60.5219ZM38.7812 60.4572L42.4178 64.0938L40.8344 65.6772L35.3795 67.4955L37.1978 62.0406L38.7812 60.4572ZM45.8125 21.0822L55.0741 30.3438H45.8125V21.0822ZM44.4062 62.1053L40.7697 58.4688L73.9375 25.3009L77.5741 28.9375L44.4062 62.1053ZM81.6213 24.8903L79.5625 26.9491L75.9259 23.3125L77.9847 21.2537C78.2216 21.0065 78.5054 20.809 78.8196 20.6729C79.1338 20.5368 79.472 20.4648 79.8144 20.4611C80.1568 20.4574 80.4965 20.5221 80.8135 20.6515C81.1306 20.7808 81.4186 20.9721 81.6607 21.2143C81.9028 21.4564 82.0942 21.7444 82.2235 22.0615C82.3529 22.3785 82.4176 22.7182 82.4139 23.0606C82.4102 23.403 82.3382 23.7412 82.2021 24.0554C82.066 24.3696 81.8685 24.6534 81.6213 24.8903Z" fill="#414141"/>
</svg>
