<svg width="90" height="90" viewBox="0 0 90 90" fill="none" xmlns="http://www.w3.org/2000/svg">
<path d="M78.1003 30.9023L71.2969 5.49277C71.2014 5.13583 71.0366 4.8012 70.8117 4.50801C70.5869 4.21481 70.3065 3.96879 69.9865 3.784C69.6666 3.59921 69.3133 3.47927 68.947 3.43104C68.5807 3.38282 68.2085 3.40724 67.8516 3.50292L64.0238 4.52948C63.6984 4.61426 63.3912 4.75718 63.1167 4.95136L54.8789 10.8421L47.7633 4.74464C46.9945 4.08458 46.0147 3.72168 45.0014 3.72168C43.9881 3.72168 43.0084 4.08458 42.2395 4.74464L4.27079 37.4681C3.81178 37.8653 3.44387 38.3568 3.1922 38.9092C2.94053 39.4615 2.81102 40.0617 2.81251 40.6687V82.9687C2.81251 84.0876 3.25699 85.1606 4.04816 85.9518C4.83933 86.743 5.91238 87.1875 7.03126 87.1875H82.9688C84.0876 87.1875 85.1607 86.743 85.9519 85.9518C86.743 85.1606 87.1875 84.0876 87.1875 82.9687V40.6687C87.1892 40.0611 87.0597 39.4603 86.8078 38.9075C86.5558 38.3546 86.1875 37.8626 85.7278 37.4653L78.1003 30.9023ZM84.3455 83.1178L58.6786 62.5781L84.375 42.0145V82.9687C84.368 83.0189 84.3582 83.0687 84.3455 83.1178ZM5.62501 82.9687V42.0131L31.3285 62.5781L5.65454 83.1178C5.64172 83.0687 5.63186 83.0189 5.62501 82.9687ZM44.1169 55.9448C44.3684 55.7481 44.6786 55.6412 44.9979 55.6412C45.3172 55.6412 45.6274 55.7481 45.8789 55.9448L81.4135 84.375H8.58517L44.1169 55.9448ZM68.5758 6.2198L75.8545 33.3871L73.1377 34.1142L65.8589 6.94823L68.5758 6.2198ZM43.5938 21.6562L46.5047 32.5237L38.3484 34.7076C36.9064 35.0936 35.3701 34.891 34.0774 34.1442C32.7848 33.3975 31.8417 32.1679 31.4557 30.7258C31.0697 29.2838 31.2724 27.7474 32.0191 26.4548C32.7658 25.1621 33.9955 24.2191 35.4375 23.8331L43.5938 21.6562ZM45.8747 35.6034L48.4228 45.1125C48.519 45.4725 48.4684 45.8561 48.2819 46.1788C48.0955 46.5016 47.7886 46.7371 47.4286 46.8337C47.0685 46.9299 46.685 46.8793 46.3622 46.6928C46.0395 46.5064 45.8039 46.1995 45.7074 45.8395L43.1592 36.3318L45.8747 35.6034ZM49.3341 32.2115L46.1995 20.5115L63.3038 8.27714L70.2605 34.2407L49.3341 32.2115ZM44.0789 6.87089C44.335 6.64773 44.6632 6.5248 45.0028 6.5248C45.3425 6.5248 45.6707 6.64773 45.9267 6.87089L52.522 12.5226L43.9749 18.6314L35.0452 21.022C32.9583 21.5465 31.141 22.8284 29.9467 24.6184C28.7525 26.4083 28.2665 28.5785 28.5835 30.7068C28.7843 31.8614 29.2234 32.9615 29.8728 33.937C30.5222 34.9125 31.3678 35.742 32.3555 36.3726C33.3432 37.0033 34.4515 37.4213 35.6097 37.6C36.7679 37.7786 37.9506 37.7141 39.0825 37.4104L40.4409 37.0476L42.9511 46.4174C43.1671 47.2891 43.644 48.0741 44.318 48.6675C44.8391 49.1123 45.4608 49.4235 46.1292 49.5742C46.7976 49.7249 47.4926 49.7105 48.1542 49.5323C48.8175 49.3556 49.4276 49.0198 49.9317 48.554C50.4358 48.0881 50.8186 47.5063 51.0469 46.859C51.3295 46.0082 51.3466 45.0915 51.0961 44.2307L48.6141 34.9607L71.7525 37.2107C72.088 37.2443 72.4268 37.2167 72.7524 37.1292L76.583 36.1026C76.9419 36.0069 77.2781 35.8406 77.572 35.6134C77.8659 35.3862 78.1115 35.1026 78.2944 34.7793L83.4117 39.1823L56.4286 60.7809L47.6325 53.7426C46.8846 53.1446 45.9555 52.8188 44.9979 52.8188C44.0403 52.8188 43.1112 53.1446 42.3633 53.7426L33.5785 60.7739L6.58689 39.1823L44.0789 6.87089Z" fill="#414141"/>
<path d="M77.6473 18.3472C77.7272 18.6464 77.9037 18.9109 78.1493 19.0996C78.3949 19.2883 78.696 19.3906 79.0057 19.3906C79.1288 19.3907 79.2513 19.3741 79.3699 19.3414L84.8037 17.8859C85.164 17.7894 85.4711 17.5536 85.6576 17.2305C85.844 16.9075 85.8945 16.5236 85.7979 16.1633C85.7013 15.803 85.4655 15.4959 85.1425 15.3094C84.8194 15.123 84.4355 15.0725 84.0752 15.1691L78.6415 16.626C78.2815 16.7225 77.9746 16.9581 77.7882 17.2808C77.6017 17.6036 77.5511 17.9871 77.6473 18.3472Z" fill="#414141"/>
<path d="M75.9968 11.461C76.1817 11.4611 76.3648 11.4248 76.5356 11.3541C76.7065 11.2834 76.8617 11.1797 76.9924 11.0489L80.9693 7.07205C81.1036 6.94232 81.2107 6.78715 81.2844 6.61558C81.3581 6.44402 81.3969 6.25949 81.3985 6.07277C81.4002 5.88605 81.3646 5.70087 81.2939 5.52805C81.2232 5.35522 81.1187 5.19821 80.9867 5.06618C80.8547 4.93414 80.6977 4.82972 80.5248 4.75902C80.352 4.68831 80.1668 4.65273 79.9801 4.65435C79.7934 4.65597 79.6089 4.69477 79.4373 4.76847C79.2657 4.84217 79.1106 4.9493 78.9808 5.08361L75.0026 9.06048C74.8059 9.25715 74.6721 9.50769 74.6178 9.78044C74.5636 10.0532 74.5914 10.3359 74.6978 10.5928C74.8043 10.8497 74.9845 11.0693 75.2157 11.2239C75.4469 11.3784 75.7187 11.4609 75.9968 11.461Z" fill="#414141"/>
<path d="M79.006 25.9902C78.9582 26.1686 78.9459 26.3547 78.97 26.5378C78.9941 26.7209 79.054 26.8975 79.1463 27.0575C79.2386 27.2175 79.3616 27.3577 79.5081 27.4701C79.6546 27.5826 79.8218 27.6651 80.0002 27.7129L85.434 29.1684C85.5526 29.2011 85.6751 29.2176 85.7982 29.2176C86.1395 29.2177 86.4691 29.0938 86.7258 28.8689C86.9824 28.6439 87.1485 28.3333 87.193 27.995C87.2376 27.6567 87.1576 27.3137 86.968 27.0299C86.7784 26.7462 86.4921 26.5411 86.1624 26.4529L80.7287 24.996C80.5503 24.9482 80.3642 24.9359 80.1811 24.96C79.998 24.9841 79.8214 25.044 79.6614 25.1363C79.5014 25.2286 79.3612 25.3515 79.2488 25.4981C79.1363 25.6446 79.0538 25.8118 79.006 25.9902Z" fill="#414141"/>
</svg>
