<svg width="86" height="86" viewBox="0 0 86 86" fill="none" xmlns="http://www.w3.org/2000/svg">
<path d="M69.6807 44.2598H73.426C74.0121 47.1597 76.58 49.3501 79.6501 49.3501C83.1514 49.3501 86 46.5015 86 43C86 39.4985 83.1514 36.6499 79.6499 36.6499C76.5798 36.6499 74.0119 38.8403 73.4259 41.7402H69.6805C69.381 35.3233 66.8077 29.4908 62.7484 25.0331L69.4947 18.2869C70.8227 19.2539 72.4555 19.8265 74.2204 19.8265C78.6574 19.8265 82.2671 16.2167 82.2671 11.7796C82.2671 7.34259 78.6574 3.73294 74.2204 3.73294C69.7833 3.73294 66.1736 7.34275 66.1736 11.7796C66.1736 13.5445 66.7461 15.1773 67.7132 16.5053L60.9669 23.2514C56.5092 19.1923 50.6767 16.6188 44.2598 16.3195V12.5741C47.1597 11.9881 49.3501 9.42019 49.3501 6.35006C49.3501 2.84858 46.5015 0 43 0C39.4985 0 36.6499 2.84858 36.6499 6.35006C36.6499 9.42019 38.8403 11.9881 41.7402 12.5741V16.3193C35.3233 16.6188 29.4908 19.1921 25.0331 23.2512L18.2873 16.5056C19.2544 15.1775 19.827 13.5445 19.827 11.7796C19.827 9.10021 18.4999 6.60504 16.277 5.10507C15.6999 4.71606 14.917 4.8679 14.5281 5.44471C14.1389 6.02151 14.2909 6.80441 14.8676 7.1936C16.3954 8.22442 17.3073 9.93888 17.3073 11.7796C17.3073 14.8276 14.8274 17.3075 11.7795 17.3075C8.73152 17.3075 6.2518 14.8276 6.2518 11.7796C6.2518 9.31823 7.90377 7.13044 10.2691 6.45941C10.9385 6.26943 11.3271 5.57287 11.1372 4.90351C10.9472 4.23416 10.2503 3.84598 9.58144 4.03545C6.13741 5.01269 3.73227 8.19721 3.73227 11.7796C3.73227 16.217 7.34225 19.827 11.7796 19.827C13.5447 19.827 15.1777 19.2544 16.5056 18.2873L23.2514 25.0329C19.1921 29.4906 16.6188 35.3232 16.3193 41.7401H12.5741C11.9881 38.8401 9.42019 36.6498 6.35006 36.6498C2.84858 36.6499 0 39.4985 0 43C0 46.5015 2.84858 49.3501 6.35006 49.3501C9.42019 49.3501 11.9881 47.1597 12.5741 44.2598H16.3195C16.619 50.6767 19.1923 56.5092 23.2516 60.9669L16.5053 67.7131C15.1773 66.7461 13.5445 66.1735 11.7796 66.1735C7.34259 66.1735 3.73294 69.7833 3.73294 74.2204C3.73294 78.6574 7.34259 82.2671 11.7796 82.2671C16.2167 82.2671 19.8264 78.6572 19.8264 74.2204C19.8264 72.4555 19.2539 70.8227 18.2868 69.4947L25.0331 62.7486C29.4908 66.8077 35.3233 69.3812 41.7402 69.6805V73.4257C38.8403 74.0117 36.6499 76.5796 36.6499 79.6498C36.6499 83.1514 39.4985 86 43 86C46.5015 86 49.3501 83.1514 49.3501 79.6499C49.3501 76.5798 47.1597 74.0119 44.2598 73.4259V69.6807C50.6767 69.3812 56.5092 66.8079 60.9669 62.7488L67.7127 69.4944C66.7456 70.8225 66.173 72.4555 66.173 74.2204C66.173 78.6576 69.783 82.2677 74.2204 82.2677C78.6577 82.2677 82.2677 78.6577 82.2677 74.2204C82.2677 73.3493 82.129 72.4914 81.8554 71.6702C81.6352 71.0103 80.9215 70.6535 80.262 70.8734C79.6019 71.0934 79.2451 71.8068 79.4652 72.4669C79.653 73.0305 79.7484 73.6205 79.7484 74.2202C79.7484 77.2681 77.2685 79.748 74.2205 79.748C71.1726 79.748 68.6927 77.2683 68.6927 74.2202C68.6927 71.1721 71.1726 68.6923 74.2205 68.6923C74.9181 68.6923 75.5984 68.8207 76.2424 69.0738C76.8892 69.3283 77.621 69.0096 77.8757 68.3621C78.1302 67.7146 77.8115 66.9834 77.164 66.7288C76.2252 66.3599 75.2351 66.1728 74.2207 66.1728C72.4557 66.1728 70.8227 66.7454 69.4947 67.7126L62.7489 60.9669C66.8077 56.5092 69.3812 50.6767 69.6807 44.2598ZM79.6499 39.1695C81.7621 39.1695 83.4805 40.8878 83.4805 43C83.4805 45.1122 81.7621 46.8305 79.6499 46.8305C77.5377 46.8305 75.8194 45.1122 75.8194 43C75.8194 40.8878 77.5379 39.1695 79.6499 39.1695ZM74.2204 6.25247C77.2681 6.25247 79.7475 8.73202 79.7475 11.7796C79.7475 14.8274 77.268 17.307 74.2204 17.307C71.1727 17.307 68.6932 14.8274 68.6932 11.7796C68.6932 8.73186 71.1727 6.25247 74.2204 6.25247ZM39.1695 6.35006C39.1695 4.23785 40.888 2.51953 43 2.51953C45.112 2.51953 46.8305 4.23785 46.8305 6.35006C46.8305 8.46227 45.112 10.1806 43 10.1806C40.888 10.1806 39.1695 8.4621 39.1695 6.35006ZM6.35006 46.8305C4.23785 46.8305 2.51953 45.1122 2.51953 43C2.51953 40.8878 4.23785 39.1695 6.35006 39.1695C8.46227 39.1695 10.1804 40.8878 10.1804 43C10.1804 45.1122 8.4621 46.8305 6.35006 46.8305ZM43 18.8085C56.3392 18.8085 67.1915 29.6608 67.1915 43C67.1915 56.3392 56.3392 67.1915 43 67.1915C29.6608 67.1915 18.8085 56.3394 18.8085 43C18.8085 29.6606 29.6608 18.8085 43 18.8085ZM11.7796 79.7475C8.73186 79.7475 6.25247 77.268 6.25247 74.2204C6.25247 71.1726 8.73202 68.693 11.7796 68.693C14.8273 68.693 17.3068 71.1726 17.3068 74.2204C17.3068 77.2681 14.8273 79.7475 11.7796 79.7475ZM46.8305 79.6499C46.8305 81.7621 45.112 83.4805 43 83.4805C40.888 83.4805 39.1695 81.7621 39.1695 79.6499C39.1695 77.5377 40.888 75.8194 43 75.8194C45.112 75.8194 46.8305 77.5379 46.8305 79.6499Z" fill="#414141"/>
<path d="M28.7482 58.5119H35.8625C35.8664 58.5119 35.8701 58.5124 35.8739 58.5124C35.8778 58.5124 35.8815 58.5119 35.8854 58.5119H40.0609C40.7568 58.5119 41.3207 57.9479 41.3207 57.2521C41.3207 56.5564 40.7568 55.9924 40.0609 55.9924H37.1337V53.8592C37.1337 53.1634 36.5698 52.5994 35.8739 52.5994C35.178 52.5994 34.6142 53.1634 34.6142 53.8592V55.9924H30.008V49.7876C30.008 46.7397 32.487 44.2598 35.534 44.2598H50.4664C53.5135 44.2598 55.9924 46.7397 55.9924 49.7876V55.9924H51.3862V53.8592C51.3862 53.1634 50.8223 52.5994 50.1264 52.5994C49.4305 52.5994 48.8667 53.1634 48.8667 53.8592V55.9924H45.9398C45.2439 55.9924 44.68 56.5564 44.68 57.2521C44.68 57.9479 45.2439 58.5119 45.9398 58.5119H50.1153C50.1192 58.5119 50.1229 58.5124 50.1268 58.5124C50.1306 58.5124 50.1343 58.5119 50.1382 58.5119H57.2525C57.9484 58.5119 58.5123 57.9479 58.5123 57.2521V49.7876C58.5123 45.3502 54.9031 41.7402 50.4667 41.7402H49.5315C51.5031 39.9561 52.7441 37.3784 52.7441 34.5162C52.7441 29.1436 48.3732 24.7727 43.0005 24.7727C37.6279 24.7727 33.257 29.1436 33.257 34.5162C33.257 37.3784 34.4979 39.9561 36.4696 41.7402H35.5343C31.0979 41.7402 27.4888 45.3502 27.4888 49.7876V57.2521C27.4884 57.9479 28.0525 58.5119 28.7482 58.5119ZM35.7764 34.5162C35.7764 30.533 39.017 27.2922 43.0004 27.2922C46.9837 27.2922 50.2244 30.5329 50.2244 34.5162C50.2244 38.4996 46.9837 41.7402 43.0004 41.7402C39.017 41.7402 35.7764 38.4996 35.7764 34.5162Z" fill="#414141"/>
</svg>
