<svg width="99" height="99" viewBox="0 0 99 99" fill="none" xmlns="http://www.w3.org/2000/svg">
<path d="M88.2476 7.74951H10.7524C4.82349 7.74951 0 12.573 0 18.502V80.498C0 86.427 4.82349 91.2505 10.7524 91.2505H88.2476C94.1765 91.2505 99 86.427 99 80.498V18.502C99 12.573 94.1765 7.74951 88.2476 7.74951ZM96.0939 80.498C96.0939 84.8246 92.5741 88.3444 88.2476 88.3444H10.7524C6.42589 88.3444 2.90607 84.8246 2.90607 80.498V18.502C2.90607 14.1754 6.42589 10.6556 10.7524 10.6556H88.2476C92.5741 10.6556 96.0939 14.1754 96.0939 18.502V80.498Z" fill="#414141"/>
<path d="M91.347 23.2485H7.65225C6.84979 23.2485 6.19922 23.8989 6.19922 24.7016C6.19922 25.5042 6.84979 26.1546 7.65225 26.1546H91.347C92.1494 26.1546 92.8 25.5042 92.8 24.7016C92.8 23.8989 92.1494 23.2485 91.347 23.2485Z" fill="#414141"/>
<path d="M10.7528 18.4051C11.1345 18.4051 11.5104 18.2501 11.7796 17.9789C12.0509 17.7096 12.2059 17.3357 12.2059 16.9521C12.2059 16.5702 12.0509 16.1945 11.7796 15.9252C11.5104 15.654 11.1345 15.499 10.7528 15.499C10.3692 15.499 9.99532 15.654 9.72603 15.9252C9.4548 16.1945 9.2998 16.5702 9.2998 16.9521C9.2998 17.3355 9.4548 17.7096 9.72603 17.9789C9.99532 18.2501 10.3692 18.4051 10.7528 18.4051Z" fill="#414141"/>
<path d="M23.1513 18.4051C23.5329 18.4051 23.9088 18.2501 24.1781 17.9789C24.4493 17.7096 24.6043 17.3357 24.6043 16.9521C24.6043 16.5702 24.4493 16.1945 24.1781 15.9252C23.9088 15.654 23.5329 15.499 23.1513 15.499C22.7677 15.499 22.3938 15.654 22.1245 15.9252C21.8532 16.1945 21.6982 16.5702 21.6982 16.9521C21.6982 17.3355 21.8532 17.7096 22.1245 17.9789C22.3938 18.2501 22.7677 18.4051 23.1513 18.4051Z" fill="#414141"/>
<path d="M16.9521 18.4051C17.3357 18.4051 17.7096 18.2501 17.9789 17.9789C18.2501 17.7096 18.4051 17.3357 18.4051 16.9521C18.4051 16.5702 18.2501 16.1945 17.9789 15.9252C17.7096 15.654 17.3357 15.499 16.9521 15.499C16.5704 15.499 16.1945 15.654 15.9252 15.9252C15.654 16.1945 15.499 16.5702 15.499 16.9521C15.499 17.3355 15.654 17.7096 15.9252 17.9789C16.1945 18.2501 16.5704 18.4051 16.9521 18.4051Z" fill="#414141"/>
<path d="M50.5 37C40.3019 37 32 45.2957 32 55.5C32 65.6981 40.3019 74 50.5 74C60.6981 74 69 65.6981 69 55.5C69 45.2942 60.6981 37 50.5 37ZM33.8654 55.4985C33.8654 53.0888 34.3788 50.7995 35.3053 48.7321L43.2418 70.4696C37.6903 67.7701 33.8654 62.0798 33.8654 55.4985ZM50.5 72.1346C48.8658 72.1346 47.2918 71.8956 45.801 71.4547L50.7914 56.9538L55.902 70.9629C55.939 71.0462 55.9775 71.1186 56.0207 71.1942C54.2971 71.7985 52.4394 72.1346 50.5 72.1346ZM52.7894 47.7069V47.7053C53.7884 47.6529 54.6903 47.5496 54.6903 47.5496C55.586 47.4448 55.4811 46.1251 54.5854 46.176C54.5854 46.176 51.8921 46.3841 50.1547 46.3841C48.5205 46.3841 45.7748 46.176 45.7748 46.176C44.8806 46.1236 44.7773 47.4972 45.6715 47.5496C45.6715 47.5496 46.521 47.6545 47.4167 47.7053L50.0051 54.8062L46.3652 65.7197L40.3096 47.7053C41.3101 47.6529 42.212 47.5496 42.212 47.5496C43.1077 47.4448 43.0029 46.1251 42.1072 46.176C42.1072 46.176 39.4139 46.3841 37.6764 46.3841C37.3635 46.3841 36.9965 46.3764 36.6019 46.3625C39.5788 41.8485 44.6879 38.8654 50.5 38.8654C54.8275 38.8654 58.7726 40.5227 61.7341 43.2283C61.6586 43.2206 61.5923 43.2145 61.5183 43.2145C59.8841 43.2145 58.7279 44.639 58.7279 46.1683C58.7279 47.5404 59.5187 48.6966 60.362 50.0702C60.9957 51.1741 61.7357 52.5986 61.7357 54.6583C61.7357 56.0828 61.1915 57.7308 60.4669 60.0371L58.8096 65.5794L52.7894 47.7069ZM65.0996 47.5188C66.3977 49.8914 67.1361 52.6063 67.1361 55.5015C67.1361 61.6405 63.8092 66.9962 58.8635 69.876L58.862 69.8745L63.9418 55.1855C64.8884 52.8129 65.2106 50.9197 65.2106 49.2254C65.2106 48.6149 65.1736 48.0476 65.0996 47.5188Z" fill="#414141"/>
</svg>
