<svg width="90" height="90" viewBox="0 0 90 90" fill="none" xmlns="http://www.w3.org/2000/svg">
<g clip-path="url(#clip0)">
<path d="M45.0802 0C43.3278 0 41.57 0.149001 39.8562 0.44357C39.1393 0.566479 38.658 1.24763 38.7809 1.96448C38.9038 2.68202 39.5857 3.16336 40.3018 3.04045C41.8687 2.77129 43.4768 2.63464 45.0802 2.63464C60.5371 2.63464 73.1123 15.2098 73.1123 30.6668C73.1123 37.1473 70.7262 43.5454 66.3935 48.6815C65.0635 50.258 63.4684 51.6203 61.9255 52.9373C58.6551 55.7313 55.2802 58.6124 54.275 63.6098H53.9591C54.0037 63.1319 54.0882 62.5029 54.2448 61.7098C54.6265 59.7708 55.5281 56.4357 57.6505 51.5558C58.5383 49.5144 57.7501 47.14 55.8165 46.0311C54.6959 45.3891 53.3562 45.2751 52.1429 45.7193C50.931 46.1629 49.9835 47.1125 49.5433 48.3251L49.4424 48.6046C49.4039 48.7097 49.3655 48.8161 49.327 48.9218C45.9254 47.9756 42.5437 48.4281 40.7886 48.7955C40.7653 48.7316 40.742 48.6678 40.7193 48.6046L40.6177 48.3251C40.1775 47.1132 39.23 46.1629 38.018 45.7193C36.8048 45.2751 35.4658 45.3891 34.3445 46.0311C32.4109 47.14 31.6227 49.5144 32.5105 51.5558C32.6011 51.7645 32.6897 51.9705 32.7762 52.1738C33.0612 52.8432 33.8343 53.1557 34.5038 52.8707C35.1733 52.5864 35.4857 51.8126 35.2008 51.1431C35.1115 50.933 35.0202 50.7201 34.9261 50.5045C34.5752 49.6971 34.8883 48.7564 35.6546 48.3169C36.0996 48.0622 36.6303 48.0168 37.1124 48.1933C37.5916 48.3691 37.9666 48.7447 38.141 49.224L38.2426 49.5041C38.395 49.923 38.5516 50.3542 38.7095 50.7957L40.2977 55.6372C40.9679 57.9608 41.5721 60.5865 41.9704 63.6098H38.8475C38.7473 62.3182 38.4053 60.1491 37.3733 56.9205C37.1522 56.2277 36.4106 55.8452 35.7178 56.067C35.0243 56.2888 34.6425 57.0297 34.8636 57.7232C35.7803 60.5899 36.0961 62.5063 36.2005 63.6098H35.8798C34.8622 58.7559 31.3295 55.5829 27.9052 52.5082C26.2744 51.0442 24.735 49.6613 23.4681 48.1171C19.2686 42.9968 17.0487 36.9626 17.0487 30.6668C17.0487 24.9519 18.7571 19.4553 21.9891 14.7703C25.147 10.1918 29.5353 6.68445 34.6789 4.62796C35.3546 4.35811 35.6828 3.59114 35.4129 2.91548C35.1424 2.23982 34.3761 1.91092 33.7004 2.18146C28.0734 4.43158 23.2738 8.26716 19.82 13.2742C16.2838 18.4013 14.4141 24.4156 14.4141 30.6668C14.4141 37.5792 16.8407 44.1909 21.4315 49.7877C22.8254 51.4878 24.5132 53.0032 26.1446 54.4685C29.3877 57.3806 32.4617 60.1429 33.3049 64.1763C32.2853 64.8224 31.6048 65.9581 31.6048 67.2524V69.9543C31.6048 70.8106 31.9035 71.5968 32.3999 72.2196C31.9035 72.8424 31.6048 73.6286 31.6048 74.4848V77.1867C31.6048 78.8361 32.7076 80.2313 34.2134 80.6783V81.3972C34.2134 86.1412 38.073 90.0002 42.8163 90.0002H47.3454C52.0887 90.0002 55.9483 86.1412 55.9483 81.3972V80.6783C57.4541 80.2313 58.5569 78.8361 58.5569 77.1867V74.4848C58.5569 73.6286 58.2582 72.8424 57.7617 72.2196C58.2582 71.5968 58.5569 70.8106 58.5569 69.9543V67.2524C58.5569 65.956 57.8743 64.8183 56.8506 64.1728C57.6642 60.0441 60.4472 57.6655 63.6373 54.9409C65.2605 53.5553 66.9387 52.1216 68.4081 50.3803C73.1411 44.7697 75.7476 37.768 75.7476 30.6668C75.7469 13.7569 61.9901 0 45.0802 0V0ZM49.8619 55.6406L51.389 50.9873C51.3973 50.9618 51.4034 50.9358 51.4103 50.9097C51.5826 50.4276 51.7529 49.9593 51.9184 49.5041L52.02 49.224C52.1938 48.7447 52.5687 48.3691 53.0486 48.1933C53.53 48.0168 54.0614 48.0622 54.5064 48.3169C55.2727 48.7564 55.5858 49.6971 55.2342 50.5045C53.3981 54.7274 52.1773 58.4174 51.6074 61.473C51.4433 62.3512 51.3574 63.0598 51.3149 63.6098H48.1906C48.5882 60.5879 49.1925 57.9642 49.8619 55.6406ZM41.6827 51.3045C43.2125 51.0175 45.841 50.7304 48.442 51.4102C48.1625 52.2218 47.8817 53.074 47.6084 53.9707H42.5526C42.267 53.0348 41.9738 52.1484 41.6827 51.3045ZM46.8661 56.6054C46.3305 58.6914 45.8609 61.0074 45.5347 63.6091H44.6256C44.3001 61.0074 43.8305 58.6914 43.2942 56.6054H46.8661ZM53.313 81.3972C53.313 84.6876 50.6358 87.3648 47.3454 87.3648H42.8156C39.5252 87.3648 36.848 84.6876 36.848 81.3972V80.8294H53.313V81.3972ZM55.9215 77.1861C55.9215 77.7422 55.4697 78.1947 54.9135 78.1947H35.2468C34.6913 78.1947 34.2388 77.7422 34.2388 77.1861V74.4848C34.2388 74.0797 34.4791 73.7309 34.8245 73.5702C34.9632 73.5867 35.1039 73.597 35.2468 73.597H54.9135C55.0564 73.597 55.1971 73.5867 55.3358 73.5702C55.6812 73.7302 55.9215 74.0797 55.9215 74.4848V77.1861ZM55.9215 69.9543C55.9215 70.3595 55.6812 70.7083 55.3358 70.8683C55.1971 70.8525 55.0571 70.8422 54.9135 70.8422H35.2468C35.1039 70.8422 34.9632 70.8525 34.8245 70.8683C34.4798 70.7083 34.2388 70.3595 34.2388 69.9543V67.2524C34.2388 66.6962 34.6913 66.2444 35.2474 66.2444H54.9135C55.4697 66.2444 55.9222 66.6962 55.9222 67.2524V69.9543H55.9215Z" fill="#414141"/>
</g>
<defs>
<clipPath id="clip0">
<rect width="90" height="90" fill="white"/>
</clipPath>
</defs>
</svg>
