<svg width="86" height="85" viewBox="0 0 86 85" fill="none" xmlns="http://www.w3.org/2000/svg">
<path d="M76.1003 27.9023L69.2969 2.49277C69.2014 2.13583 69.0366 1.8012 68.8117 1.50801C68.5869 1.21481 68.3065 0.968787 67.9865 0.783998C67.6666 0.599208 67.3133 0.479273 66.947 0.431045C66.5807 0.382817 66.2085 0.407241 65.8516 0.502921L62.0238 1.52948C61.6984 1.61426 61.3912 1.75718 61.1167 1.95136L52.8789 7.84214L45.7633 1.74464C44.9945 1.08458 44.0147 0.721677 43.0014 0.721677C41.9881 0.721677 41.0084 1.08458 40.2395 1.74464L2.27079 34.4681C1.81178 34.8653 1.44387 35.3568 1.1922 35.9092C0.940532 36.4615 0.811021 37.0617 0.812513 37.6687V79.9687C0.812513 81.0876 1.25699 82.1606 2.04816 82.9518C2.83933 83.743 3.91238 84.1875 5.03126 84.1875H80.9688C82.0876 84.1875 83.1607 83.743 83.9519 82.9518C84.743 82.1606 85.1875 81.0876 85.1875 79.9687V37.6687C85.1892 37.0611 85.0597 36.4603 84.8078 35.9075C84.5558 35.3546 84.1875 34.8626 83.7278 34.4653L76.1003 27.9023ZM82.3455 80.1178L56.6786 59.5781L82.375 39.0145V79.9687C82.368 80.0189 82.3582 80.0687 82.3455 80.1178ZM3.62501 79.9687V39.0131L29.3285 59.5781L3.65454 80.1178C3.64172 80.0687 3.63186 80.0189 3.62501 79.9687ZM42.1169 52.9448C42.3684 52.7481 42.6786 52.6412 42.9979 52.6412C43.3172 52.6412 43.6274 52.7481 43.8789 52.9448L79.4135 81.375H6.58517L42.1169 52.9448ZM66.5758 3.2198L73.8545 30.3871L71.1377 31.1142L63.8589 3.94823L66.5758 3.2198ZM41.5938 18.6562L44.5047 29.5237L36.3484 31.7076C34.9064 32.0936 33.3701 31.891 32.0774 31.1442C30.7848 30.3975 29.8417 29.1679 29.4557 27.7258C29.0697 26.2838 29.2724 24.7474 30.0191 23.4548C30.7658 22.1621 31.9955 21.2191 33.4375 20.8331L41.5938 18.6562ZM43.8747 32.6034L46.4228 42.1125C46.519 42.4725 46.4684 42.8561 46.2819 43.1788C46.0955 43.5016 45.7886 43.7371 45.4286 43.8337C45.0685 43.9299 44.685 43.8793 44.3622 43.6928C44.0395 43.5064 43.8039 43.1995 43.7074 42.8395L41.1592 33.3318L43.8747 32.6034ZM47.3341 29.2115L44.1995 17.5115L61.3038 5.27714L68.2605 31.2407L47.3341 29.2115ZM42.0789 3.87089C42.335 3.64773 42.6632 3.5248 43.0028 3.5248C43.3425 3.5248 43.6707 3.64773 43.9267 3.87089L50.522 9.52261L41.9749 15.6314L33.0452 18.022C30.9583 18.5465 29.141 19.8284 27.9467 21.6184C26.7525 23.4083 26.2665 25.5785 26.5835 27.7068C26.7843 28.8614 27.2234 29.9615 27.8728 30.937C28.5222 31.9125 29.3678 32.742 30.3555 33.3726C31.3432 34.0033 32.4515 34.4213 33.6097 34.6C34.7679 34.7786 35.9506 34.7141 37.0825 34.4104L38.4409 34.0476L40.9511 43.4174C41.1671 44.2891 41.644 45.0741 42.318 45.6675C42.8391 46.1123 43.4608 46.4235 44.1292 46.5742C44.7976 46.7249 45.4926 46.7105 46.1542 46.5323C46.8175 46.3556 47.4276 46.0198 47.9317 45.554C48.4358 45.0881 48.8186 44.5063 49.0469 43.859C49.3295 43.0082 49.3466 42.0915 49.0961 41.2307L46.6141 31.9607L69.7525 34.2107C70.088 34.2443 70.4268 34.2167 70.7524 34.1292L74.583 33.1026C74.9419 33.0069 75.2781 32.8406 75.572 32.6134C75.8659 32.3862 76.1115 32.1026 76.2944 31.7793L81.4117 36.1823L54.4286 57.7809L45.6325 50.7426C44.8846 50.1446 43.9555 49.8188 42.9979 49.8188C42.0403 49.8188 41.1112 50.1446 40.3633 50.7426L31.5785 57.7739L4.58689 36.1823L42.0789 3.87089Z" fill="#441144"/>
<path d="M75.6473 15.3472C75.7272 15.6464 75.9037 15.9109 76.1493 16.0996C76.3949 16.2883 76.696 16.3906 77.0057 16.3906C77.1288 16.3907 77.2513 16.3741 77.3699 16.3414L82.8037 14.8859C83.164 14.7894 83.4711 14.5536 83.6576 14.2305C83.844 13.9075 83.8945 13.5236 83.7979 13.1633C83.7013 12.803 83.4655 12.4959 83.1425 12.3094C82.8194 12.123 82.4355 12.0725 82.0752 12.1691L76.6415 13.626C76.2815 13.7225 75.9746 13.9581 75.7882 14.2808C75.6017 14.6036 75.5511 14.9871 75.6473 15.3472Z" fill="#441144"/>
<path d="M73.9968 8.46095C74.1817 8.4611 74.3648 8.42478 74.5356 8.35408C74.7065 8.28338 74.8617 8.17968 74.9924 8.04892L78.9693 4.07205C79.1036 3.94232 79.2107 3.78715 79.2844 3.61558C79.3581 3.44402 79.3969 3.25949 79.3985 3.07277C79.4002 2.88605 79.3646 2.70087 79.2939 2.52805C79.2232 2.35522 79.1187 2.19821 78.9867 2.06618C78.8547 1.93414 78.6977 1.82972 78.5248 1.75902C78.352 1.68831 78.1668 1.65273 77.9801 1.65435C77.7934 1.65597 77.6089 1.69477 77.4373 1.76847C77.2657 1.84217 77.1106 1.9493 76.9808 2.08361L73.0026 6.06048C72.8059 6.25715 72.6721 6.50769 72.6178 6.78044C72.5636 7.05318 72.5914 7.33589 72.6978 7.59281C72.8043 7.84973 72.9845 8.06933 73.2157 8.22386C73.4469 8.37838 73.7187 8.46089 73.9968 8.46095Z" fill="#441144"/>
<path d="M77.006 22.9902C76.9582 23.1686 76.9459 23.3547 76.97 23.5378C76.9941 23.7209 77.054 23.8975 77.1463 24.0575C77.2386 24.2175 77.3616 24.3577 77.5081 24.4701C77.6546 24.5826 77.8218 24.6651 78.0002 24.7129L83.434 26.1684C83.5526 26.2011 83.6751 26.2176 83.7982 26.2176C84.1395 26.2177 84.4691 26.0938 84.7258 25.8689C84.9824 25.6439 85.1485 25.3333 85.193 24.995C85.2376 24.6567 85.1576 24.3137 84.968 24.0299C84.7784 23.7462 84.4921 23.5411 84.1624 23.4529L78.7287 21.996C78.5503 21.9482 78.3642 21.9359 78.1811 21.96C77.998 21.9841 77.8214 22.044 77.6614 22.1363C77.5014 22.2286 77.3612 22.3515 77.2488 22.4981C77.1363 22.6446 77.0538 22.8118 77.006 22.9902Z" fill="#441144"/>
</svg>
