<svg width="99" height="99" viewBox="0 0 99 99" fill="none" xmlns="http://www.w3.org/2000/svg">
<path d="M88.2476 7.74951H10.7524C4.82349 7.74951 0 12.573 0 18.502V80.498C0 86.427 4.82349 91.2505 10.7524 91.2505H88.2476C94.1765 91.2505 99 86.427 99 80.498V18.502C99 12.573 94.1765 7.74951 88.2476 7.74951ZM96.0939 80.498C96.0939 84.8246 92.5741 88.3444 88.2476 88.3444H10.7524C6.42589 88.3444 2.90607 84.8246 2.90607 80.498V18.502C2.90607 14.1754 6.42589 10.6556 10.7524 10.6556H88.2476C92.5741 10.6556 96.0939 14.1754 96.0939 18.502V80.498Z" fill="#414141"/>
<path d="M91.347 23.2485H7.65225C6.84979 23.2485 6.19922 23.8989 6.19922 24.7016C6.19922 25.5042 6.84979 26.1546 7.65225 26.1546H91.347C92.1494 26.1546 92.8 25.5042 92.8 24.7016C92.8 23.8989 92.1494 23.2485 91.347 23.2485Z" fill="#414141"/>
<path d="M10.7528 18.4051C11.1345 18.4051 11.5104 18.2501 11.7796 17.9789C12.0509 17.7096 12.2059 17.3357 12.2059 16.9521C12.2059 16.5702 12.0509 16.1945 11.7796 15.9252C11.5104 15.654 11.1345 15.499 10.7528 15.499C10.3692 15.499 9.99532 15.654 9.72603 15.9252C9.4548 16.1945 9.2998 16.5702 9.2998 16.9521C9.2998 17.3355 9.4548 17.7096 9.72603 17.9789C9.99532 18.2501 10.3692 18.4051 10.7528 18.4051Z" fill="#414141"/>
<path d="M23.1513 18.4051C23.5329 18.4051 23.9088 18.2501 24.1781 17.9789C24.4493 17.7096 24.6043 17.3357 24.6043 16.9521C24.6043 16.5702 24.4493 16.1945 24.1781 15.9252C23.9088 15.654 23.5329 15.499 23.1513 15.499C22.7677 15.499 22.3938 15.654 22.1245 15.9252C21.8532 16.1945 21.6982 16.5702 21.6982 16.9521C21.6982 17.3355 21.8532 17.7096 22.1245 17.9789C22.3938 18.2501 22.7677 18.4051 23.1513 18.4051Z" fill="#414141"/>
<path d="M16.9521 18.4051C17.3357 18.4051 17.7096 18.2501 17.9789 17.9789C18.2501 17.7096 18.4051 17.3357 18.4051 16.9521C18.4051 16.5702 18.2501 16.1945 17.9789 15.9252C17.7096 15.654 17.3357 15.499 16.9521 15.499C16.5704 15.499 16.1945 15.654 15.9252 15.9252C15.654 16.1945 15.499 16.5702 15.499 16.9521C15.499 17.3355 15.654 17.7096 15.9252 17.9789C16.1945 18.2501 16.5704 18.4051 16.9521 18.4051Z" fill="#414141"/>
<path d="M50.8358 39.8956L50.6357 39.7701C51.7875 37.9337 54.4712 37.9837 55.5528 39.867L57.876 43.9123C58.6263 43.669 59.431 43.6465 60.2096 43.8562C63.3926 44.7135 64.3189 48.7768 61.9185 50.9512L64.2427 54.9984C65.3213 56.876 64.0317 59.2399 61.8679 59.3247L61.8581 59.0749L61.8679 59.3247C56.2126 59.5462 50.7908 61.016 45.9166 63.5186L41.1224 66.3013L44.9153 72.9057C45.0632 73.1632 45.3888 73.2502 45.6435 73.1023L47.0173 72.305L47.0173 72.3049C47.2729 72.1567 47.3612 71.8278 47.2128 71.5695L44.4369 66.7359C44.1957 66.316 44.3383 65.7783 44.7574 65.5351C45.1773 65.2914 45.7136 65.4365 45.9552 65.8572L48.7312 70.6909L48.5467 70.7968L48.7312 70.6909C49.3622 71.7896 48.9889 73.1929 47.8946 73.828L46.5208 74.6254L46.3953 74.4092L46.5208 74.6254C45.4254 75.2611 44.0281 74.8835 43.3968 73.7843L39.6046 67.1811C37.8497 68.1477 35.6326 67.5296 34.6277 65.7799L31.4552 60.2557L31.6718 60.1313L31.4552 60.2557C30.4368 58.4824 31.0427 56.2068 32.8079 55.1823L36.6261 52.9662C36.6261 52.9662 36.6261 52.9662 36.6261 52.9662C37.0459 52.7225 37.5823 52.8675 37.824 53.2883C38.0651 53.7083 37.9225 54.2459 37.5034 54.4892L37.3779 54.2729L37.5034 54.4892L33.6852 56.7053C32.7573 57.2439 32.437 58.4428 32.9736 59.3771L32.7915 59.4817L32.9736 59.3771L36.146 64.9013L36.146 64.9013C36.6821 65.8349 37.8731 66.155 38.8003 65.6168L38.8004 65.6168C38.851 65.5874 38.991 65.5061 39.1969 65.3866C40.5969 64.5739 45.0402 61.9947 45.0977 61.9631C45.0979 61.963 45.0981 61.9629 45.0982 61.9628L45.212 62.1854L50.8358 39.8956ZM50.8358 39.8956L50.6357 39.7701C47.6699 44.4991 43.719 48.521 39.0282 51.5732C38.6519 51.8176 38.5129 52.3207 38.7352 52.731L38.7353 52.7312M50.8358 39.8956L38.7353 52.7312M38.7353 52.7312C38.7609 52.7784 42.274 58.8949 42.7558 59.7338L42.8103 59.8286L42.8103 59.8286M38.7353 52.7312L42.8103 59.8286M42.8103 59.8286C43.0518 60.2491 43.5878 60.3946 44.0081 60.1508L44.0081 60.1508M42.8103 59.8286L44.0081 60.1508M44.0081 60.1508C44.4272 59.9075 44.5698 59.3699 44.3287 58.9499L40.6746 52.5872C45.1255 49.5585 49.0676 45.5726 52.1189 40.7074L52.1189 40.7074M44.0081 60.1508L52.1189 40.7074M52.1189 40.7074C52.5685 39.9904 53.6129 40.012 54.0343 40.7457L62.7243 55.8771C63.1475 56.614 62.6389 57.534 61.7995 57.5668L61.8093 57.8166L52.1189 40.7074ZM66.0509 44.9054L66.051 44.9053L67.6715 43.9647C68.0906 43.7215 68.2332 43.1838 67.9921 42.7639C67.7505 42.3433 67.2144 42.1979 66.7942 42.4417L66.7942 42.4417L65.1736 43.3823C64.7546 43.6256 64.6118 44.1632 64.8531 44.5832C65.0947 45.0038 65.6308 45.1491 66.0509 44.9054ZM60.7303 38.6129L60.7303 38.6129L60.3351 40.0954L60.5763 40.1597L60.3351 40.0954C60.2104 40.5634 60.4862 41.0462 60.9544 41.1723L60.9546 41.1724C61.4247 41.2986 61.9036 41.0174 62.0282 40.5501L61.7905 40.4867L62.0282 40.5501L62.4234 39.0676C62.5482 38.5996 62.2723 38.1168 61.8041 37.9906L61.8039 37.9906C61.3351 37.8646 60.8553 38.1443 60.7303 38.6129ZM66.9157 49.062L66.9156 49.062C66.4471 48.936 65.967 49.2156 65.842 49.6842C65.7172 50.1523 65.9933 50.635 66.4615 50.7612L66.5265 50.5198L66.4615 50.7612C66.8067 50.8542 67.0745 50.9267 67.2831 50.9832C67.5574 51.0575 67.7294 51.1041 67.8408 51.1331C67.9369 51.1581 67.9984 51.173 68.0449 51.1806C68.0959 51.189 68.1306 51.1888 68.1553 51.1887C68.1583 51.1887 68.1611 51.1887 68.1637 51.1887C68.5515 51.1887 68.9052 50.929 69.0099 50.5363C69.1348 50.0682 68.8586 49.5854 68.3905 49.4592L68.3905 49.4592L66.9157 49.062ZM61.2032 46.6724C61.706 47.5478 61.5953 48.6136 61.0061 49.3624L58.7873 45.499C59.7157 45.3601 60.6927 45.7834 61.2032 46.6724L61.42 46.5479L61.2032 46.6724Z" fill="#414141" stroke="#414141" stroke-width="0.5"/>
</svg>
