<svg width="99" height="99" viewBox="0 0 99 99" fill="none" xmlns="http://www.w3.org/2000/svg">
<path d="M88.2476 7.74951H10.7524C4.82349 7.74951 0 12.573 0 18.502V80.498C0 86.427 4.82349 91.2505 10.7524 91.2505H88.2476C94.1765 91.2505 99 86.427 99 80.498V18.502C99 12.573 94.1765 7.74951 88.2476 7.74951ZM96.0939 80.498C96.0939 84.8246 92.5741 88.3444 88.2476 88.3444H10.7524C6.42589 88.3444 2.90607 84.8246 2.90607 80.498V18.502C2.90607 14.1754 6.42589 10.6556 10.7524 10.6556H88.2476C92.5741 10.6556 96.0939 14.1754 96.0939 18.502V80.498Z" fill="#414141"/>
<path d="M91.347 23.2485H7.65225C6.84979 23.2485 6.19922 23.8989 6.19922 24.7016C6.19922 25.5042 6.84979 26.1546 7.65225 26.1546H91.347C92.1494 26.1546 92.8 25.5042 92.8 24.7016C92.8 23.8989 92.1494 23.2485 91.347 23.2485Z" fill="#414141"/>
<path d="M10.7528 18.4051C11.1345 18.4051 11.5104 18.2501 11.7796 17.9789C12.0509 17.7096 12.2059 17.3357 12.2059 16.9521C12.2059 16.5702 12.0509 16.1945 11.7796 15.9252C11.5104 15.654 11.1345 15.499 10.7528 15.499C10.3692 15.499 9.99532 15.654 9.72603 15.9252C9.4548 16.1945 9.2998 16.5702 9.2998 16.9521C9.2998 17.3355 9.4548 17.7096 9.72603 17.9789C9.99532 18.2501 10.3692 18.4051 10.7528 18.4051Z" fill="#414141"/>
<path d="M23.1513 18.4051C23.5329 18.4051 23.9088 18.2501 24.1781 17.9789C24.4493 17.7096 24.6043 17.3357 24.6043 16.9521C24.6043 16.5702 24.4493 16.1945 24.1781 15.9252C23.9088 15.654 23.5329 15.499 23.1513 15.499C22.7677 15.499 22.3938 15.654 22.1245 15.9252C21.8532 16.1945 21.6982 16.5702 21.6982 16.9521C21.6982 17.3355 21.8532 17.7096 22.1245 17.9789C22.3938 18.2501 22.7677 18.4051 23.1513 18.4051Z" fill="#414141"/>
<path d="M16.9521 18.4051C17.3357 18.4051 17.7096 18.2501 17.9789 17.9789C18.2501 17.7096 18.4051 17.3357 18.4051 16.9521C18.4051 16.5702 18.2501 16.1945 17.9789 15.9252C17.7096 15.654 17.3357 15.499 16.9521 15.499C16.5704 15.499 16.1945 15.654 15.9252 15.9252C15.654 16.1945 15.499 16.5702 15.499 16.9521C15.499 17.3355 15.654 17.7096 15.9252 17.9789C16.1945 18.2501 16.5704 18.4051 16.9521 18.4051Z" fill="#414141"/>
<path d="M60 67.1H60.1V67C60.1 61.4286 55.5681 56.9 50.0006 56.9C44.4319 56.9 39.9 61.4286 39.9 67V67.1H40H42.4066H42.5066V67C42.5066 62.9009 45.8653 59.5637 49.9994 59.5637C54.1336 59.5637 57.4934 62.8997 57.4934 67V67.1H57.5934H60Z" fill="#414141" stroke="#414141" stroke-width="0.2"/>
<path d="M49.9987 56.1C46.0926 56.1 42.9 53.1445 42.9 49.5L49.9987 56.1ZM49.9987 56.1C53.9073 56.1 57.1 53.1469 57.1 49.5C57.1 45.8531 53.9073 42.9 49.9987 42.9C46.0914 42.9 42.8987 45.8543 42.9 49.5L49.9987 56.1ZM45.6511 49.5C45.6511 47.2844 47.594 45.4701 49.9987 45.4701C52.4023 45.4701 54.3476 47.2845 54.3476 49.5C54.3476 51.7156 52.4048 53.5299 49.9987 53.5299C47.594 53.5299 45.6511 51.7156 45.6511 49.5Z" fill="#414141" stroke="#414141" stroke-width="0.2"/>
</svg>
